<svg xmlns="http://www.w3.org/2000/svg" width="26" height="26" viewBox="0 0 26 26">
  <g id="グループ_100" data-name="グループ 100" transform="translate(-1113 -683)">
    <rect id="長方形_73" data-name="長方形 73" width="26" height="26" transform="translate(1113 683)" fill="#fff" opacity="0"/>
    <g id="グループ_87" data-name="グループ 87" transform="translate(-1 0)">
      <path id="パス_370" data-name="パス 370" d="M5,16.006h4.24a1,1,0,0,0,.71-.29l6.92-6.93,2.84-2.78a1,1,0,0,0,.006-1.414l-.006-.006L15.469.3A1,1,0,0,0,14.055.29L14.049.3l-2.82,2.83-6.94,6.93a1,1,0,0,0-.29.71v4.24a1,1,0,0,0,1,1" transform="translate(1115 686)" fill="#262727"/>
      <rect id="長方形_60" data-name="長方形 60" width="2.008" height="4.002" transform="translate(1128.339 689.836) rotate(-45)" fill="#fff"/>
      <path id="パス_371" data-name="パス 371" d="M6,11.176l5.93-5.93,2.83,2.83-5.93,5.93H6Z" transform="translate(1115 686)" fill="#fff"/>
      <path id="パス_372" data-name="パス 372" d="M21,18.006H3a1,1,0,0,0,0,2H21a1,1,0,0,0,0-2" transform="translate(1115 686)" fill="#43abca"/>
    </g>
  </g>
</svg>
