<svg xmlns="http://www.w3.org/2000/svg" width="26" height="26" viewBox="0 0 26 26">
  <g id="グループ_94" data-name="グループ 94" transform="translate(-1113 -927)">
    <rect id="長方形_79" data-name="長方形 79" width="26" height="26" transform="translate(1113 927)" fill="#fff" opacity="0"/>
    <g id="グループ_93" data-name="グループ 93" transform="translate(-0.553 -2.003)">
      <path id="パス_367" data-name="パス 367" d="M3.305,255.347H15.628a.752.752,0,0,1,0,1.5H3.305a.752.752,0,0,1,0-1.5" transform="translate(1115 686)" fill="#43abca"/>
      <path id="パス_368" data-name="パス 368" d="M8.875,251.439a.752.752,0,0,1,.432,1.367L4.615,256.1l4.692,3.292a.752.752,0,0,1-.863,1.23l-5.571-3.9a.752.752,0,0,1-.184-1.047.731.731,0,0,1,.184-.184l5.569-3.9a.747.747,0,0,1,.431-.136" transform="translate(1115 686)" fill="#43abca"/>
      <rect id="長方形_59" data-name="長方形 59" width="13.827" height="9.313" transform="translate(1117.553 937.442)" fill="none"/>
      <path id="パス_391" data-name="パス 391" d="M17.014,245H6.233A3.234,3.234,0,0,0,3,248.237v3.234a1.078,1.078,0,1,0,2.156,0V248.24a1.08,1.08,0,0,1,1.078-1.078H17.014a1.079,1.079,0,0,1,1.074,1.078v15.094a1.08,1.08,0,0,1-1.078,1.078H6.233a1.08,1.08,0,0,1-1.078-1.078V260.1A1.078,1.078,0,1,0,3,260.1v3.234a3.234,3.234,0,0,0,3.234,3.234H17.014a3.234,3.234,0,0,0,3.234-3.234V248.24A3.234,3.234,0,0,0,17.017,245h0Z" transform="translate(1115 686)" fill="#1c1d1d"/>
    </g>
  </g>
</svg>
