<svg xmlns="http://www.w3.org/2000/svg" width="26" height="26" viewBox="0 0 26 26">
  <g id="グループ_96" data-name="グループ 96" transform="translate(-1113 -844)">
    <rect id="長方形_77" data-name="長方形 77" width="26" height="26" transform="translate(1113 844)" fill="#fff" opacity="0"/>
    <g id="グループ_91" data-name="グループ 91" transform="translate(0.001 0.184)">
      <path id="パス_383" data-name="パス 383" d="M13.738,174.1H9.26a3.975,3.975,0,1,0,0,2.226h4.478a3.975,3.975,0,1,0,0-2.226" transform="translate(1115 686)" fill="#43abca"/>
      <path id="パス_384" data-name="パス 384" d="M5.464,176.965a1.749,1.749,0,1,1,1.749-1.749,1.749,1.749,0,0,1-1.749,1.749" transform="translate(1115 686)" fill="#fff"/>
      <path id="パス_385" data-name="パス 385" d="M19.285,175.216a1.749,1.749,0,1,1-1.75-1.749,1.75,1.75,0,0,1,1.75,1.749Z" transform="translate(1115 686)" fill="#fff"/>
      <path id="パス_386" data-name="パス 386" d="M1.112,170.427H21.886a1.113,1.113,0,1,0,0-2.226H19.712l-1.6-4.636a1.114,1.114,0,0,0-1.052-.749H5.941a1.114,1.114,0,0,0-1.052.749l-1.6,4.636H1.112a1.113,1.113,0,1,0,0,2.226" transform="translate(1115 686)" fill="#262727"/>
      <path id="パス_387" data-name="パス 387" d="M6.734,165.041h9.53l1.092,3.16H5.642Z" transform="translate(1115 686)" fill="#fff"/>
    </g>
  </g>
</svg>
