<svg xmlns="http://www.w3.org/2000/svg" width="26" height="26" viewBox="0 0 26 26">
  <g id="グループ_95" data-name="グループ 95" transform="translate(-1113 -887)">
    <rect id="長方形_78" data-name="長方形 78" width="26" height="26" transform="translate(1113 887)" fill="#fff" opacity="0"/>
    <g id="グループ_92" data-name="グループ 92" transform="translate(-0.999 -0.753)">
      <path id="パス_388" data-name="パス 388" d="M18.362,204.753H4.886A2.888,2.888,0,0,0,2,207.64H2v13.475A2.888,2.888,0,0,0,4.886,224H18.362a2.888,2.888,0,0,0,2.887-2.887V207.64a2.888,2.888,0,0,0-2.887-2.887" transform="translate(1115 686)" fill="#262727"/>
      <path id="パス_389" data-name="パス 389" d="M9.7,206.678h3.849v3.013l-1.4-.963a.961.961,0,0,0-1.059,0l-1.4.963Z" transform="translate(1115 686)" fill="#43a0bd"/>
      <path id="パス_390" data-name="パス 390" d="M19.324,221.116a.964.964,0,0,1-.962.962H4.886a.964.964,0,0,1-.962-.962V207.64a.962.962,0,0,1,.962-.962H7.774v4.812a.95.95,0,0,0,1.473.8l2.377-1.569,2.358,1.569a.962.962,0,0,0,1.492-.8v-4.812h2.888a.964.964,0,0,1,.962.962Z" transform="translate(1115 686)" fill="#fff"/>
    </g>
  </g>
</svg>
