<svg xmlns="http://www.w3.org/2000/svg" width="26" height="26" viewBox="0 0 26 26">
  <g id="グループ_98" data-name="グループ 98" transform="translate(-1113 -764)">
    <rect id="長方形_75" data-name="長方形 75" width="26" height="26" transform="translate(1113 764)" fill="#fff" opacity="0"/>
    <g id="グループ_89" data-name="グループ 89" transform="translate(-2 0.497)">
      <path id="パス_373" data-name="パス 373" d="M7.238,84.889A4.386,4.386,0,1,0,11.623,80.5a4.386,4.386,0,0,0-4.385,4.386" transform="translate(1115 686)" fill="#43abca"/>
      <path id="パス_374" data-name="パス 374" d="M11.623,82.489a2.4,2.4,0,1,1-2.4,2.4,2.4,2.4,0,0,1,2.4-2.4Z" transform="translate(1115 686)" fill="#fff"/>
      <path id="パス_375" data-name="パス 375" d="M4,97.409v1.326a2.321,2.321,0,0,0,2.319,2.32H16.928a2.323,2.323,0,0,0,2.32-2.32V97.409A7.624,7.624,0,1,0,4,97.409" transform="translate(1115 686)" fill="#262727"/>
      <path id="パス_376" data-name="パス 376" d="M11.623,91.774a5.642,5.642,0,0,1,5.636,5.635v1.326a.332.332,0,0,1-.331.331H6.319a.333.333,0,0,1-.331-.331V97.409a5.642,5.642,0,0,1,5.635-5.635" transform="translate(1115 686)" fill="#fff"/>
      <path id="パス_377" data-name="パス 377" d="M20.934,90.348V89.276H22a.994.994,0,1,0,0-1.989H20.928V86.215a.995.995,0,1,0-1.989,0v1.072H17.873a.994.994,0,0,0,0,1.989h1.071v1.072a1,1,0,0,0,1.99,0" transform="translate(1115 686)" fill="#262727"/>
    </g>
  </g>
</svg>
