<?xml version="1.0" encoding="UTF-8"?><svg xmlns="http://www.w3.org/2000/svg" viewBox="0 0 255.75 341.85"><defs><style>.j{fill:#fff;}.k{fill:#ffe33f;}.l{fill:#f9f3ae;}.m{fill:#58c1df;}.n{fill:#fff8b0;}.o{fill:#231815;}</style></defs><g id="a"/><g id="b"><g id="c"><g><path class="j" d="M53.09,120.14c-.03,.4-.04,.81-.02,1.23-.47-3.48-4.69-4.87-7.62-3.65-2.72,1.14-4.38,4.37-3.72,7.25,.52,2.26,2.26,4.18,2.35,6.5,.09,2.38-1.59,4.43-3.22,6.16-1.63,1.73-3.42,3.6-3.66,5.97-.24,2.37,2.15,5.01,4.31,4.01-2.1,4.08-1.22,9.49,2.06,12.7-2.31,3.45-2.27,8.3,.08,11.72s6.88,5.17,10.92,4.24c-1.26,.32,4.42,12.85,5.06,13.91,1.89,3.13,5.58,5.89,5.28,9.83-2.88-1.4-6.1-.26-8.1,2.12-2.34,2.79-2.9,6.69-5.81,8.92-2.48,1.9-6.37,2.45-9.09,4.52-6.57,4.99-11.23,12.34-14,20.04-4.76,13.23-3.45,27.52-5.45,41.1-1.95,13.26-3.03,26.65-3.23,40.06-.05,3.34-1.7,16.97,.88,18.87,1.16,.86,6.98-.11,8.55-.11,3.59,.01,7.18,.02,10.77,.03,27.61,.08,55.23,.16,82.84,.25h4.97c.05,.01-.51-11.44-.6-12.57-.34-4.36-.9-9.12,1.76-12.92,2.27-3.25,6.23-4.77,9.34-7.22,6.57-5.18,8.82-15.12,5.14-22.63-3.56-7.25-12.84-12.52-10.99-21.51,1.54-7.49,1.37-13.89,.73-21.58-.34-4.16-1.03-10.58-3.49-14-2.18-3.04-5.94-3.39-8.46-5.77-4.93-4.64-6.1-12.78-11.71-16.08-3.72-2.19-8.67-2.09-12.3,.25,8.29-5.34,11.1-16.24,11.79-25.6,4.15,2.02,9.73,.28,12.01-3.73,2.28-4.01,.9-9.69-2.96-12.22,2.09,.99,4.41-1.26,4.86-3.52,.45-2.27-.13-4.65,.35-6.9,.51-2.38,2.15-4.34,3.46-6.4,1.31-2.06,2.36-4.59,1.54-6.89-.7-1.98-2.84-2.66-4.74-2.52-.3-1.75,1.43-3.41,1.25-5.38-.17-1.89-1.45-3.63-3.21-4.36-1.1-.45-2.33-.51-3.47-.88-3.82-1.22-3.91-4.51-5.09-7.67-.94-2.52-2.86-4.86-5.03-6.43-4.99-3.61-12.38-3.95-17.44-.3-5.39-3.99-12.43-5.68-19.04-4.57-7.65,1.28-17.28,7.22-17.87,15.74Z"/><path class="j" d="M169.85,125.41c-1.42,.5-2.79,1.08-4.11,1.73-5.9,2.88-10.62,9.84-13.95,15.38-5.1,8.51-7.73,18.55-6.97,28.47,.36,4.75,1.43,9.47,1.28,14.23-.15,4.76-1.77,9.81-5.64,12.6,4.03,4.97,10.88,6.42,17.18,7.55,5.74,1.03,11.47,2.06,17.21,3.09-.18,1.36-4.04,10.73-6.13,10.21-1.55-.38-3.01-1.09-4.27-2.06-1.34,6.54-6.39,8.23-10.76,12.23-4.23,3.89-7.64,8.65-9.2,14.23-1.43,5.13-3.49,10.1-4.43,15.36-.4,2.23-.34,4.52-.89,6.72-.6,2.36-2.04,4.54-2.28,7-.16,1.6,.3,3.18,.76,4.72,1.3,4.38,2.36,11.56,5.52,15.02,1.22,1.34,10.78,3.78,11.17,2.24-1.18,4.64-2.36,9.85-2.23,14.67,.09,3.34,1.3,6.41,1.45,9.78,.06,1.4,.38,21.86,.4,21.86,5.47-.05,64.39-2.53,64.51-.28-.47-8.64-.95-17.28-1.42-25.92-.48-8.67,5.75-12.4,10.48-18.66,4.98-6.59,6.63-15.47,4.73-23.47-.94-3.95-3.42-6.93-4.25-10.78-1.02-4.75-1.06-9.61-2.54-14.28-1.1-3.49-2.79-7.19-4.34-10.49-.47-1.01-8.21-10.27-8.59-9.2,.37-1.05,.75-2.09,1.12-3.14-1.82-.35-3.5-1.35-4.68-2.78-.4,.48-.8,.96-1.19,1.44-1-1.72-2-3.44-3-5.16-2.02,.35-3.94,1.29-5.44,2.68-1.88-3.98-5.43-8.8-1.07-11.82,2.89-2,6.99-2.78,10.44-3.04,2.6-.19,5-.51,7.52-1.23,1.01-.29,9.59-3.57,9.98-3.08-3.25-5.74-3.76-12.63-3.48-19.22,.28-6.59,1.27-13.19,.74-19.76-.96-11.85-7.14-23.18-16.57-30.42-5.88-4.51-12.96-7.38-20.29-8.39-5.51-.76-11.41,.07-16.75,1.97Z"/><path class="m" d="M84.34,136.56c-1.45,1.12-2.81,2.45-4.12,3.46-.89-1.67-2.66-2.84-4.55-2.99-1.89-.15-3.83,.72-4.97,2.23-1.4,1.85-1.73,4.62-3.77,5.74-2.38,1.31-5.28-.56-7.98-.29-4.38,.44-7.63,9.44-7.08,13.15-2.47,.46-4.94,.91-7.41,1.37-2.42-2.9-2.85-7.3-1.03-10.61-2.85,1.73-4.17-2.56-3.74-4.5,.56-2.54,2.91-3.49,4.27-5.38,3.61-5.01-2.19-10.3,.9-15.55,1.08-1.83,3.1-3.15,5.23-3.15,1.31,0,2.6,.47,3.91,.37,3.31-.27,2.84-2.94,4.42-4.78,1.52-1.77,5.09-3.04,7.2-3.95,5.37-2.31,11.5-3.43,16.97-.79,2.24,1.08,4.4,2.7,6.89,2.66,4.5-.08,7.99-4.05,12.75-1.79,3.88,1.85,5.57,7,8.54,9.88,2.23,2.16,5.18,3.48,7.27,5.76,2.09,2.29,2.96,6.29,.59,8.29,1.68,.9,3.36,1.79,5.05,2.69,.03,2.22,.33,4.77-.35,6.87-.55,1.71-2.18,2.1-1.93,4.5,.18,1.71,.9,3.31,1.16,5.01,.26,1.7-.1,3.69-1.54,4.62-1.02,.66-2.33,.62-3.55,.57l-7.68-.36c-5.14-.24-3.83-5.81-3.92-9.42-.05-1.84-.54-3.83-2.01-4.93-1.17-.88-2.77-1.03-4.2-.73s-2.75,1-4.05,1.68c1.16-3.36,.38-9.04-2.93-11.01-3.12-1.86-5.85-.53-8.33,1.39Z"/><path class="m" d="M185.08,128.5c-1.45-.18-2.88-.38-4.27-.65-4.62-.91-9.65,.38-13.77,2.53-5.77,3.02-10.3,7.95-14.16,13.19-3.06,4.15-6.36,8.51-6.8,13.7-.5,5.94-.54,12.16,.45,18.06,.18-2.62,2.43-4.95,5.04-5.22,2.61-.28,5.3,1.53,6.02,4.06-1.03-3.56,4.42-10.25,7.37-11.66,2.06-.98,4.41-1.08,6.68-1.16,2.28-.08,4.63-.17,6.68-1.15,2.78-1.32,5.68-6.2,5.43-9.3,1.13,2.97,2.26,5.94,3.39,8.91-.54-1.41,13.37,1.03,14.56,1.61,4.89,2.41,8.24,5.99,9.98,11.04,4.12-1.37,9.05,.35,11.44,3.98-.08-5.48,1.04-12.6-1.17-17.59-2.3-5.19-6.61-10.05-9.75-14.77-3.23-5.15-7.14-10.59-12.99-12.92-4.32-1.73-9.35-2.05-14.13-2.64Z"/><path class="k" d="M148.29,183.55c-.12-.11-.23-.22-.35-.33,2.15,1.98-4.18,13.19-5.33,14.54,5.02,4.32,11.51,6.08,17.59,4.76-2.87-4.07-4.32-9.54-3.94-14.86-3.4,.73-5.53-1.8-7.97-4.11Z"/><path class="m" d="M218.39,185.2c-2.3,2.13-4.78,4.01-6.34,6.98-2.18,4.13-2.89,9.57-6.41,12.27,.86-.65,4.87,.11,6.13-.11,1.9-.33,3.55-.88,5.2-1.96,3.07-2,5.56-3.54,8.94-5.03-4.15-2.76-6.93-7.99-6.08-13.57-.47,.49-.95,.96-1.45,1.42Z"/><path class="n" d="M73.87,223.93c-2.39,13.85-2.77,28.33,.07,42.07,1.28,6.21-.66,13.86-.77,20.27-.06,3.71-.02,7.42,.13,11.13,.08,1.93,1.69,9.05,.71,10.49,3.72-5.44,8.15-10.4,13.14-14.7-1.15-11.14-.98-22.31-1.86-33.43-.88-11.26-.29-22.63,1.76-33.74,.21-1.15,.34-2.57-.6-3.26-.59-.43-1.4-.39-2.13-.32-2.66,.23-5.33,.46-7.99,.69l-2.47,.79Z"/><path class="n" d="M175.79,221.91l-12.18-5.21c-9.25,8.16-17.24,18.02-21.88,29.46-3.96,9.76-7.05,25.24-1.68,35.01,5.75,10.46,11.92,18.06,7.39,30.97,1.17-2.16,2.38-4.37,4.25-5.96s4.56-2.46,6.83-1.52c3.1,1.28,10.59-8.82,12.55-10.63-5.54,2.14-11.99,1.53-16.69-2.26-4.66-3.77-6.92-10.28-5.59-16.12-2.63-1.24-4.25-4.33-3.76-7.2s3.04-5.26,5.93-5.55c-1.79-7.87,0-16.49,4.76-23.01,4.77-6.52,12.44-10.82,20.49-11.49-1.17-1.57-1.15-3.92,.07-5.46l-.5-1Z"/><path class="n" d="M200.09,234.57c-2.81-2.51-6.38-4.17-10.11-4.69l.99-7.88c4.66,.29,9.4-.59,13.65-2.52,6.94,9.26,13.94,18.62,18.52,29.25,2.76,6.4,3.3,12.55,4.66,19.2,2.52,12.26,6.61,29.36-5.55,38.44-1.37,1.02-2.98,1.97-3.55,3.58-.5,1.39-.09,2.92,.27,4.35,2.26,8.98,2.57,18.45,.89,27.56-5.17,0-10.33-.01-15.5-.02-1.04-10.16-1.35-28.56-9.87-35.7-2.36-1.98-5.37-3.08-7.71-5.07-2.35-2-3.93-5.56-2.26-8.15,6.42-.66,13.03,.74,18.63,3.94,4.37-9.42,8.84-19.46,7.56-29.76-.42-3.34-1.43-6.57-2.44-9.78-1.84-5.86-3.69-11.72-5.53-17.58l-2.65-5.17Z"/><path class="o" d="M208.24,208.14c-.88,0-1.62-.68-1.69-1.57-.07-.94,.63-1.75,1.57-1.83,5.87-.45,11.57-2.34,16.61-5.49-4.92-5.85-4.39-13.02-3.88-19.98v-.16c.12-1.41,.25-2.83,.38-4.25,.47-5.02,.96-10.21,.03-15.15-1.24-6.57-4.39-12.58-7.3-17.6-4.62-7.95-13.94-16.03-21.7-16.03-.11,0-.22,0-.32,0-2.39,.07-4.48-.1-6.51-.26-2.69-.21-5.23-.41-8.23-.05-9.38,1.16-16.27,6.25-23.05,17.02-.5,.79-1.55,1.03-2.35,.53-.79-.5-1.03-1.55-.53-2.35,4.91-7.79,12.24-16.94,25.52-18.58,3.34-.41,6.17-.19,8.91,.03,1.94,.15,3.94,.31,6.14,.25,9.47-.26,19.96,8.92,25.07,17.72,3.06,5.27,6.36,11.6,7.7,18.68,1.02,5.41,.51,10.84,.01,16.1-.13,1.39-.26,2.79-.37,4.18v.16c-.56,7.41-1.03,13.81,4.27,18.79,.37,.35,.57,.85,.53,1.36-.04,.51-.3,.98-.72,1.27-5.93,4.15-12.82,6.64-19.95,7.18-.04,0-.09,0-.13,0Z"/><path class="o" d="M185.08,213.02c-.4,0-.81,0-1.22-.02-9.29-.3-17.48-4.28-23.05-11.2-5.64-7-6.98-20.7-5.02-29.91,.2-.92,1.1-1.51,2.02-1.31,.92,.2,1.5,1.1,1.31,2.02-2.02,9.45-.07,21.59,4.34,27.06,4.94,6.14,12.23,9.66,20.52,9.93,8.31,.26,15.37-2.51,19.87-7.82,1.38-1.63,2.61-3.58,3.66-5.79,.4-.85,1.42-1.21,2.27-.81,.85,.4,1.21,1.42,.81,2.27-1.18,2.48-2.57,4.67-4.13,6.52-4.96,5.85-12.51,9.04-21.36,9.04Z"/><path class="o" d="M211.89,191.51c-.13,0-.27-.02-.4-.05-.91-.22-1.47-1.14-1.25-2.05,1.37-5.61,1.5-11.69,.37-17.56-.18-.92,.43-1.81,1.35-1.99,.91-.17,1.81,.43,1.99,1.35,1.21,6.35,1.07,12.92-.41,19-.19,.78-.88,1.3-1.65,1.3Z"/><path class="o" d="M168.99,219.84c-.47,0-.93-.19-1.26-.56-.63-.7-.57-1.77,.12-2.4,.66-.6,1.33-1.21,2.2-2.08,1.26-1.28,1.94-3.03,2.01-5.21,.03-.94,.83-1.7,1.76-1.64,.94,.03,1.67,.82,1.64,1.76-.1,3.06-1.11,5.58-2.99,7.49-.93,.94-1.67,1.61-2.34,2.22-.33,.29-.73,.44-1.14,.44Z"/><path class="o" d="M200.79,220.95c-.37,0-.75-.12-1.07-.38l-.42-.34c-2.81-2.25-6-4.81-5.74-10,.05-.94,.86-1.66,1.78-1.61,.94,.05,1.66,.85,1.61,1.78-.17,3.45,1.88,5.1,4.47,7.17l.43,.35c.73,.59,.85,1.66,.26,2.39-.34,.42-.83,.63-1.33,.63Z"/><path class="o" d="M211.92,308.42c-5.83,0-11.85-1.4-17-2.6l-1.02-.24c-.91-.21-1.48-1.13-1.27-2.04,.21-.91,1.13-1.48,2.04-1.27l1.02,.24c10.8,2.52,24.23,5.65,31.37-4.38,5.46-7.67,6.92-19.71,3.33-27.43-.61-1.3-1.47-4.89-2.83-10.64-1.39-5.87-2.96-12.53-4.25-15.99-3.72-9.98-7.94-13.38-10.73-15.62-.51-.41-.98-.79-1.39-1.16-.7-.62-.77-1.7-.14-2.4,.62-.7,1.7-.77,2.4-.14,.38,.34,.8,.68,1.27,1.05,3.08,2.48,7.74,6.23,11.79,17.09,1.36,3.66,2.96,10.43,4.38,16.4,1.04,4.39,2.11,8.93,2.6,9.98,4.13,8.87,2.57,22.12-3.64,30.84-4.56,6.4-11.1,8.32-17.91,8.32Z"/><path class="o" d="M184.56,189.64c-1.24,0-2.61-.26-3.65-1.14-.72-.61-1.54-1.75-1.38-3.71,.08-.94,.91-1.64,1.83-1.56,.94,.08,1.63,.9,1.56,1.83-.05,.63,.13,.78,.19,.83,.41,.35,1.71,.5,3.3,.09,.91-.23,1.84,.32,2.07,1.23,.23,.91-.32,1.84-1.23,2.07-.59,.15-1.59,.35-2.69,.35Z"/><path class="o" d="M174.06,173.16c-.16,1.36-1.39,2.33-2.75,2.17-1.35-.16-2.33-1.39-2.17-2.74,.16-1.36,1.39-2.33,2.75-2.17s2.33,1.39,2.17,2.74Z"/><path class="o" d="M199.65,173.16c-.16,1.36-1.39,2.33-2.75,2.17-1.36-.16-2.33-1.39-2.17-2.74,.16-1.36,1.39-2.33,2.74-2.17,1.36,.16,2.33,1.39,2.17,2.74Z"/><path class="o" d="M154.9,206.15h-.05c-5.74-.16-11.39-2.72-15.51-7-.35-.36-.52-.86-.46-1.37,.06-.5,.33-.95,.75-1.23,5.63-3.73,4.81-11.51,4.08-18.38-.13-1.26-.26-2.48-.35-3.63-.7-9.31,1.3-19.16,6.09-30.12,.38-.86,1.38-1.25,2.24-.88,.86,.38,1.25,1.38,.88,2.24-4.57,10.44-6.47,19.77-5.81,28.51,.08,1.12,.21,2.3,.34,3.52,.73,6.83,1.61,15.19-3.92,20.28,3.33,2.86,7.53,4.54,11.78,4.66,.94,.03,1.68,.81,1.65,1.75-.03,.92-.78,1.65-1.7,1.65Z"/><path class="o" d="M137.93,273.35c-.12,0-.23-.01-.35-.04-.92-.19-1.51-1.09-1.32-2.01,.95-4.56,1.51-7.86,2.04-11.04,.79-4.7,1.48-8.77,3.2-15.5,1.47-5.73,4.95-13.67,9.89-17.2,.68-.49,1.4-.95,2.11-1.42l.15-.1c.79-.51,1.84-.29,2.35,.49,.51,.79,.29,1.84-.49,2.35l-.15,.1c-.68,.44-1.35,.88-2,1.34-3.93,2.8-7.14,9.69-8.57,15.28-1.69,6.59-2.37,10.59-3.15,15.22-.54,3.22-1.1,6.55-2.07,11.17-.17,.8-.88,1.35-1.66,1.35Z"/><path class="o" d="M186.33,225.31c-3.73,0-8-1.22-11.51-2.23l-1.18-.34c-.91-.26-2.27-.91-3.85-1.66-1.61-.77-4.5-2.14-5.61-2.3-.41,.51-1.07,1.82-1.48,2.65-.54,1.08-1.1,2.19-1.69,3.01-.54,.77-1.6,.95-2.37,.41-.77-.54-.95-1.6-.41-2.37,.44-.62,.94-1.62,1.43-2.58,1.15-2.27,2.05-4.07,3.56-4.44,1.63-.4,4.13,.7,8.04,2.56,1.32,.63,2.69,1.28,3.31,1.46l1.2,.34c3.76,1.08,8.45,2.42,11.85,2.03,3.2-.37,6.83-1.93,10.34-3.45,1.74-.75,3.39-1.46,4.99-2.03,.64-.23,1.69-.6,2.84-.22,1.7,.57,2.2,2.22,2.54,3.31l.06,.2c.05,.15,.29,.75,1.3,1.78,.66,.67,.65,1.75-.02,2.41-.67,.66-1.75,.65-2.41-.02-1.11-1.13-1.83-2.19-2.13-3.16l-.07-.21c-.09-.31-.26-.85-.4-1.07-.13,.03-.45,.15-.58,.19-1.49,.53-3.09,1.22-4.78,1.95-3.74,1.61-7.61,3.28-11.3,3.7-.54,.06-1.09,.09-1.66,.09Z"/><path class="o" d="M82.04,177.62c-1.29,0-2.71-.27-3.79-1.18-.74-.63-1.59-1.8-1.43-3.83,.08-.94,.9-1.63,1.83-1.56,.94,.08,1.63,.9,1.56,1.83-.06,.71,.16,.89,.23,.96,.53,.45,2.07,.5,3.57,.12,.91-.23,1.84,.32,2.07,1.23,.23,.91-.32,1.84-1.23,2.07-.61,.16-1.66,.37-2.81,.37Z"/><path class="o" d="M82.3,205.75c-.36,0-.72,0-1.08-.02-11.09-.39-17.16-6.51-22.07-13.06-5.87-7.83-8.15-24.66-7.85-33.56,.03-.94,.79-1.71,1.76-1.64,.94,.03,1.67,.82,1.64,1.76-.3,8.75,2.03,24.54,7.17,31.4,5.09,6.79,10.34,11.38,19.47,11.7,7.98,.28,14.22-2.81,19.67-9.73,5.03-6.4,7.52-16.3,8.07-32.09,.03-.94,.81-1.68,1.76-1.64,.94,.03,1.67,.82,1.64,1.76-.57,16.56-3.29,27.07-8.8,34.07-5.85,7.43-12.85,11.05-21.38,11.05Z"/><path class="o" d="M53.34,178.88c-.08,0-.17,0-.25-.02-.44-.07-.69-.07-1.02-.07-.38,0-.8,0-1.47-.1-5.11-.73-8.71-3.54-9.87-7.7-1.08-3.88,.23-8.41,3.12-10.77,2.25-1.83,5.08-2.1,7.76-.72,.84,.43,1.17,1.45,.74,2.29-.43,.84-1.45,1.17-2.29,.74-1.49-.76-2.86-.65-4.06,.33-1.86,1.52-2.71,4.62-1.99,7.23,.79,2.84,3.3,4.71,7.07,5.25,.43,.06,.68,.06,1,.06,.38,0,.82,0,1.5,.11,.93,.14,1.57,1.01,1.43,1.94-.13,.84-.85,1.45-1.68,1.45Z"/><path class="o" d="M112.6,178.1c-.35,0-.62-.02-.88-.03-.4-.02-.74-.05-1.43,0-.96,.07-1.75-.65-1.81-1.58-.06-.94,.65-1.75,1.58-1.81,.9-.06,1.41-.03,1.86,0,.4,.02,.75,.05,1.46,0,3.57-.27,6.07-1.87,7.05-4.5,.85-2.29,.31-5.02-1.31-6.64-1.61-1.61-4.04-1.93-6.84-.9-.88,.33-1.86-.12-2.18-1.01-.33-.88,.12-1.86,1.01-2.18,4.06-1.5,7.86-.88,10.43,1.69,2.57,2.57,3.4,6.68,2.09,10.23-1.45,3.89-5.08,6.34-9.98,6.71-.42,.03-.76,.04-1.04,.04Z"/><path class="o" d="M19.21,336.11c-.91,0-1.67-.72-1.7-1.64-.58-16.53-.03-33.26,1.64-49.74,.36-3.6,.97-7.25,1.55-10.78,.75-4.57,1.53-9.3,1.78-13.87,.05-.91,.1-1.83,.14-2.73,.34-6.65,.65-12.93,2.52-19.49,2.08-7.31,5.58-13.67,10.12-18.41,2.62-2.74,5.79-4.53,8.85-6.25,2.04-1.15,4.16-2.35,6.03-3.8,.74-.57,1.81-.44,2.39,.3,.57,.74,.44,1.81-.3,2.39-2.07,1.6-4.29,2.85-6.44,4.07-2.98,1.68-5.79,3.27-8.06,5.64-4.16,4.34-7.37,10.21-9.3,16.99-1.76,6.18-2.07,12.28-2.4,18.73-.05,.91-.09,1.83-.14,2.75-.26,4.75-1.06,9.58-1.82,14.24-.57,3.48-1.17,7.08-1.52,10.57-1.66,16.32-2.2,32.9-1.63,49.27,.03,.94-.7,1.73-1.64,1.76h-.06Z"/><path class="o" d="M137.61,306.15c-.44,0-.87-.17-1.21-.5-.66-.67-.66-1.74,0-2.41,3.15-3.14,5.99-6.26,6.09-9.95,.1-3.53-.56-7.1-1.91-10.32-.65-1.56-1.73-2.93-2.87-4.38-1.22-1.55-2.47-3.15-3.26-5.08-1.04-2.55-.92-5.63-.82-8.35,.04-.97,.07-1.88,.05-2.71-.12-5.55-.41-10.61-.88-15.46-.09-.94,.59-1.77,1.53-1.86,.94-.08,1.77,.6,1.86,1.53,.48,4.93,.77,10.07,.89,15.71,.02,.93-.02,1.89-.06,2.91-.1,2.49-.2,5.06,.57,6.93,.61,1.49,1.67,2.84,2.79,4.27,1.23,1.57,2.5,3.19,3.33,5.17,1.54,3.66,2.29,7.72,2.18,11.73-.14,4.94-3.58,8.76-7.09,12.26-.33,.33-.77,.5-1.2,.5Z"/><path class="o" d="M132.81,239.86c-.79,0-1.49-.55-1.66-1.35-1.5-7.1-3.29-12.08-8.01-16.52-1.62-1.52-3.39-2.96-5.1-4.36-2.43-1.98-4.94-4.03-7.17-6.41-.64-.69-.61-1.76,.08-2.4,.69-.64,1.76-.61,2.4,.08,2.07,2.21,4.38,4.1,6.84,6.1,1.76,1.43,3.58,2.92,5.28,4.52,5.92,5.57,7.7,12.1,9.01,18.3,.19,.92-.39,1.82-1.31,2.01-.12,.03-.24,.04-.35,.04Z"/><path class="o" d="M119.68,162.36c-.22,0-.45-.02-.68-.05-.93-.14-1.57-1.01-1.42-1.94,.14-.93,1.01-1.57,1.94-1.42,.9,.14,1.84-.89,2.13-1.89,.38-1.28,.17-2.77-.05-4.35l-.06-.44c-.29-2.14-.41-4.4,.61-6.42,.7-1.39,1.86-2.49,2.88-3.45,1.43-1.36,2.3-2.24,2.2-3.28-.09-.87-1.04-1.62-1.93-1.91-1.15-.37-2.55-.34-4-.27-.7,.04-1.31-.34-1.61-.95-.3-.61-.21-1.34,.23-1.85,1.43-1.68,2.01-3.5,1.61-5.1-.42-1.71-1.89-3.15-4.13-4.05-1.85-.74-3.92-1.57-5.31-3.38-1.44-1.87-1.66-4.13-1.86-6.13-.13-1.33-.26-2.59-.7-3.64-1.16-2.77-4.71-4.04-7.6-3.86-.97,.06-1.98,.09-3,.12-3.55,.1-7.21,.2-10,1.72-.61,.33-1.35,.26-1.89-.17-.58-.47-1.17-1-1.78-1.54-1.79-1.61-3.64-3.27-5.58-3.56-1.37-.21-3.24,.09-5.05,.39-1,.16-1.95,.32-2.84,.39-6.04,.51-16.8,7.24-17.66,13.95-.08,.61-.47,1.12-1.04,1.36-.57,.23-1.21,.14-1.69-.23-1.99-1.56-5.24-1.41-7.08,.32-1.85,1.73-2.21,4.95-.79,7.05,.27,.4,.62,.81,.99,1.25,1.16,1.39,2.61,3.12,2.24,5.43-.43,2.61-2.71,3.67-4.54,4.52-1.15,.53-2.23,1.04-2.75,1.77-.72,1.01-.28,2.68,.56,3.71,1.1,1.35,2.85,2.2,4.54,3.02,.58,.28,.95,.86,.96,1.51,0,.64-.34,1.24-.91,1.53-1.55,.81-2.62,2.53-2.66,4.27-.04,1.75,.95,3.51,2.46,4.4,.81,.47,1.09,1.51,.61,2.33-.47,.81-1.51,1.09-2.33,.61-2.59-1.51-4.22-4.42-4.14-7.42,.05-2,.85-3.93,2.17-5.4-1.2-.69-2.39-1.55-3.33-2.7-1.66-2.03-2.44-5.38-.7-7.83,1.04-1.47,2.66-2.22,4.09-2.88,1.54-.72,2.49-1.2,2.62-1.99,.12-.72-.48-1.5-1.49-2.7-.4-.48-.82-.98-1.19-1.53-2.38-3.51-1.82-8.54,1.28-11.44,2.49-2.33,6.23-2.93,9.35-1.73,2.74-7.51,13.44-13.99,20.16-14.56,.77-.06,1.65-.21,2.58-.36,2.07-.34,4.21-.69,6.11-.39,2.93,.45,5.27,2.55,7.33,4.39,.28,.25,.56,.5,.83,.74,3.25-1.42,6.91-1.52,10.47-1.62,.98-.03,1.95-.05,2.88-.11,3.98-.24,9.09,1.52,10.95,5.94,.64,1.52,.79,3.1,.94,4.62,.17,1.77,.33,3.3,1.17,4.39,.83,1.07,2.31,1.67,3.87,2.3,3.3,1.32,5.49,3.59,6.18,6.39,.43,1.75,.24,3.58-.54,5.34,.7,.07,1.39,.19,2.06,.41,2.37,.77,4.04,2.66,4.26,4.81,.28,2.75-1.67,4.6-3.24,6.09-.9,.85-1.74,1.65-2.18,2.51-.57,1.13-.52,2.6-.27,4.44l.06,.43c.24,1.78,.52,3.79-.06,5.77-.66,2.24-2.74,4.34-5.23,4.34Z"/><path class="o" d="M71.43,159.44c-.16,1.4-1.43,2.4-2.82,2.23-1.39-.16-2.39-1.43-2.23-2.82s1.43-2.39,2.82-2.23c1.4,.16,2.39,1.43,2.23,2.82Z"/><path class="o" d="M97.77,159.44c-.16,1.4-1.43,2.4-2.82,2.23-1.39-.16-2.39-1.43-2.23-2.83,.16-1.39,1.43-2.39,2.82-2.23,1.4,.16,2.39,1.43,2.23,2.82Z"/><path class="o" d="M62.54,207.87c-.6,0-1.19-.32-1.5-.89-.45-.83-.14-1.86,.68-2.31,2.14-1.16,3.97-2.94,5.13-5,.46-.82,1.5-1.11,2.32-.65,.82,.46,1.11,1.5,.65,2.32-1.5,2.65-3.73,4.84-6.47,6.32-.26,.14-.54,.21-.81,.21Z"/><path class="o" d="M101.04,207.87c-.23,0-.47-.05-.69-.15-2.24-1-4.14-3.03-5.21-5.57-.36-.87,.04-1.86,.91-2.23,.87-.36,1.86,.04,2.23,.91,.74,1.76,2,3.14,3.46,3.79,.86,.38,1.24,1.39,.86,2.25-.28,.63-.9,1.01-1.55,1.01Z"/><path class="o" d="M52.86,159.84c-.86,0-1.6-.65-1.69-1.53-.56-5.58,1.73-11.75,4.9-13.2,1.7-.78,3.47-.73,5.29-.6,1.41,.1,2.71,.19,3.74-.23,1.24-.49,2.21-1.75,3.17-3.1,1.17-1.64,2.43-3.42,4.43-4.4,2.37-1.17,5.78-.68,7.07,1.91,.42,.84,.08,1.86-.76,2.28-.84,.42-1.86,.08-2.28-.76-.32-.64-1.59-.83-2.52-.37-1.23,.6-2.14,1.89-3.11,3.25-1.27,1.78-2.63,3.52-4.73,4.36-1.75,.7-3.58,.57-5.19,.46-1.46-.1-2.72-.14-3.69,.3-1.47,.67-3.39,5.17-2.93,9.77,.09,.94-.59,1.77-1.52,1.86-.06,0-.11,0-.17,0Z"/><path class="o" d="M110.79,162.77c-.61,0-1.19-.12-1.74-.35-3.19-1.36-3.96-6.06-4.52-9.49-.13-.82-.26-1.59-.38-2.04-.4-1.44-1.49-3.01-3.02-3.26-.59-.1-1.28,0-2.02,.08-.4,.05-.81,.1-1.21,.13-2.09,.14-3.78-.47-4.78-1.73-1.04-1.32-1.21-3.12-.5-5.36l.2-.6c.3-.9,.59-1.75,.46-2.41-.22-1.14-1.9-1.8-3.19-1.59-1.77,.28-3.43,1.59-4.89,2.74-.74,.58-1.81,.46-2.39-.28-.58-.74-.46-1.81,.28-2.39,1.7-1.34,3.82-3.01,6.47-3.43,2.91-.46,6.45,1.16,7.06,4.3,.3,1.54-.16,2.92-.57,4.14l-.18,.55c-.33,1.05-.36,1.86-.08,2.23,.26,.33,.98,.5,1.87,.44,.34-.02,.68-.07,1.03-.11,.9-.11,1.92-.24,2.99-.07,2.66,.44,4.91,2.68,5.75,5.71,.17,.63,.31,1.44,.46,2.39,.36,2.2,1.03,6.28,2.5,6.91,.74,.31,1.95-.4,2.61-.85,.77-.53,1.83-.33,2.36,.44,.53,.77,.33,1.83-.44,2.36-1.48,1.01-2.86,1.52-4.12,1.52Z"/><path class="o" d="M84.86,204.48s-.09,0-.14,0c-.41-.05-.75-.32-.91-.69l-1.41-3.44-3,2.88c-.28,.27-.69,.38-1.07,.28-.38-.1-.68-.39-.8-.76l-.78-2.52-2.35,2.36c-.29,.29-.7,.4-1.09,.29s-.7-.41-.8-.8l-.98-3.63-1.63,1.6c-.26,.25-.62,.36-.97,.31-.36-.06-.66-.28-.83-.6l-1.96-3.79s-.09,.05-.14,.08c-1.06,.55-2.7,.57-3.76-.45-1.39-1.34-1.46-3.3-1.42-5.03,.01-.63,.53-1.13,1.16-1.11,.63,.01,1.12,.53,1.11,1.16-.03,1.31,0,2.65,.73,3.34,.17,.17,.53,.23,.86,.16,.29-.06,.44-.19,.45-.23-.08-.55,.25-1.09,.77-1.26,.53-.17,1.1,.06,1.35,.55l2.15,4.17,1.92-1.88c.29-.28,.71-.39,1.09-.28,.39,.11,.69,.41,.8,.8l.97,3.61,2.29-2.3c.28-.28,.69-.39,1.07-.3,.39,.1,.69,.39,.81,.77l.79,2.56,2.88-2.76c.27-.26,.65-.37,1.02-.29,.37,.08,.67,.33,.81,.68l1.28,3.11,1.88-2.55c.22-.3,.59-.46,.93-.46,.37,0,.71,.19,.92,.49l1.31,1.92,2.48-3.58c.21-.3,.55-.48,.91-.49,.38,.03,.71,.17,.93,.46l.83,1.12,.79-2.68c.09-.3,.3-.56,.59-.7,.28-.14,.61-.16,.91-.04l1.87,.72c.17-.69,.42-1.19,.64-1.62,.32-.62,.57-1.11,.58-2.18,0-.62,.51-1.12,1.13-1.12h0c.63,0,1.13,.52,1.12,1.14-.01,1.61-.46,2.49-.82,3.19-.32,.62-.57,1.11-.58,2.18,0,.37-.19,.72-.5,.93-.31,.21-.7,.25-1.04,.12l-2.09-.8-1.09,3.68c-.12,.41-.47,.72-.89,.8-.43,.08-.85-.1-1.11-.44l-1.24-1.68-2.51,3.63c-.21,.31-.56,.49-.93,.49h0c-.37,0-.72-.19-.93-.49l-1.34-1.96-2.13,2.88c-.22,.29-.56,.46-.91,.46Z"/><path class="o" d="M211.59,169.26c-.27,0-.55-.07-.81-.21-6.47-3.51-16.76-7.54-24.39-7.3-.87,.03-1.65-.64-1.74-1.52-.1-.93-.37-1.77-.66-2.62-.2,.47-.38,.94-.55,1.37-.29,.74-.53,1.37-.81,1.86-.31,.54-.9,.87-1.52,.84-4.66-.13-11.26,2.07-17.1,4.01-1.95,.65-3.79,1.26-5.44,1.74-.9,.26-1.85-.25-2.11-1.15-.26-.9,.25-1.85,1.15-2.11,1.59-.47,3.41-1.07,5.33-1.71,5.67-1.88,12.04-4,17.12-4.17,.07-.17,.14-.35,.21-.54,.62-1.6,1.47-3.8,3.04-5.58,.45-.5,1.15-.7,1.79-.49,.64,.2,1.1,.77,1.17,1.44,.11,1.07,.44,2,.79,2.99,.25,.71,.51,1.44,.7,2.24,8.06,.23,17.88,4.05,24.64,7.7,.83,.45,1.13,1.48,.68,2.31-.31,.57-.89,.89-1.5,.89Z"/><path class="o" d="M213.31,189.2c-.49,0-.98-.21-1.31-.62-.6-.73-.49-1.8,.23-2.39,1.95-1.6,3.96-3.26,5.16-5.36,.9-1.57,1.52-4.07,.32-5.94-.5-.77-1.46-1.32-2.47-1.41-.43-.04-1.25-.02-1.8,.57-.64,.69-1.72,.72-2.4,.08-.69-.64-.72-1.72-.08-2.4,1.12-1.2,2.8-1.8,4.59-1.64,2.04,.18,3.97,1.32,5.03,2.96,1.67,2.59,1.58,6.31-.22,9.46-1.51,2.65-3.87,4.59-5.95,6.31-.32,.26-.7,.39-1.08,.39Z"/><path class="o" d="M156.25,189.74c-.26,0-.52-.06-.77-.19-4.42-2.25-7.51-6.9-7.88-11.84-.14-1.8,.07-4.34,1.8-6.19,.99-1.06,2.45-1.68,3.95-1.64,1.29,.03,2.43,.54,3.21,1.45,.61,.71,.54,1.78-.17,2.4-.71,.61-1.79,.54-2.4-.17-.19-.21-.49-.27-.71-.27-.52,0-1.07,.22-1.4,.57-.94,1-.96,2.68-.89,3.6,.28,3.78,2.65,7.34,6.03,9.07,.84,.43,1.17,1.45,.74,2.29-.3,.59-.9,.93-1.52,.93Z"/><path class="o" d="M74.31,230.86c-.93,0-1.68-.74-1.7-1.67-.02-1.37-.26-2.73-.52-4.17-.28-1.55-.56-3.15-.57-4.84,0-.48,0-.89,.02-1.25q.04-1.17-.54-1.73c-.36-.35-1.03-.7-1.68-1.04-.68-.36-1.39-.72-2.01-1.21-2.55-1.98-4.7-4.54-6.24-7.41-.51-.95-.83-2.43-1.17-4.01-.24-1.1-.63-2.93-.93-3.35-.67-.65-.67-1.7-.01-2.38,.65-.67,1.76-.66,2.43,0h0c1.22,1.18,2.89,1.86,4.59,1.86,.01,0,.03,0,.04,0,.94,0,1.7,.76,1.7,1.69,0,.94-.75,1.7-1.69,1.71-.97,0-1.91-.13-2.83-.4,.01,.05,.02,.11,.04,.16,.25,1.15,.56,2.59,.84,3.12,1.31,2.45,3.16,4.64,5.33,6.33,.38,.29,.92,.58,1.49,.87,.87,.45,1.76,.92,2.48,1.61,1.67,1.62,1.63,2.86,1.58,4.3-.01,.32-.02,.68-.02,1.1,.01,1.41,.26,2.8,.52,4.28,.27,1.51,.54,3.06,.57,4.7,.02,.94-.73,1.71-1.67,1.73h-.03Z"/><path class="o" d="M60.83,233.17c-.47,0-.92-.2-1.24-.54-3.89-4.18-7.03-9.21-9.06-14.55-.8-2.11-1.56-4.63-1.09-7.24,.46-2.56,1.96-4.53,3.41-6.43,1.1-1.44,2.14-2.81,2.63-4.31,.29-.89,1.25-1.38,2.14-1.09,.89,.29,1.38,1.25,1.09,2.14-.67,2.06-1.93,3.72-3.16,5.33-1.26,1.66-2.45,3.22-2.77,4.98-.32,1.79,.28,3.74,.92,5.42,1.6,4.2,3.93,8.18,6.8,11.66,.18-.49,.34-1.02,.5-1.56,.08-.28,.17-.57,.26-.85,.53-1.7,1.5-4.1,3.75-5.27,1.38-.71,3.18-.67,4.58,.11,1.19,.66,1.92,1.77,2.02,3.03,.07,.94-.63,1.75-1.57,1.82-.94,.07-1.75-.63-1.82-1.57-.01-.14-.18-.25-.28-.31-.4-.23-.99-.25-1.35-.06-.85,.44-1.51,1.48-2.06,3.26-.08,.26-.16,.53-.24,.8-.45,1.51-.96,3.22-2.13,4.63-.31,.37-.77,.59-1.26,.61h-.04Z"/><path class="o" d="M86.69,271.35c-.06,0-.12,0-.19-.01-.93-.1-1.61-.94-1.51-1.88,.69-6.25,.39-12.65,.11-18.84-.41-9-.84-18.32,1.69-27.54l.94-3.43c.42-1.52,.89-3.25,1.88-4.79,1.06-1.64,2.67-2.55,4.09-3.35,.46-.26,.92-.51,1.34-.8,2.79-1.83,4.94-4.67,5.99-7.85-.45,.09-.89,.24-1.3,.43-.85,.41-1.86,.05-2.27-.8-.41-.85-.05-1.86,.8-2.27,1.6-.77,3.46-1.05,5.22-.78,.45,.07,.86,.32,1.12,.69,.27,.37,.37,.83,.29,1.29-.85,4.88-3.84,9.42-7.98,12.13-.49,.32-1.01,.62-1.54,.91-1.18,.67-2.3,1.29-2.9,2.23-.71,1.1-1.09,2.49-1.46,3.85l-.94,3.43c-2.38,8.7-1.99,17.34-1.57,26.48,.29,6.32,.59,12.85-.13,19.36-.1,.87-.83,1.52-1.69,1.52Z"/><path class="o" d="M105.23,232.15c-.6,0-1.16-.32-1.47-.84-1.41-2.41-3.09-4.68-4.98-6.74-.38-.41-.8-.57-1.31-.51-.83,.09-1.73,.75-2.24,1.63-.47,.81-1.51,1.1-2.32,.63-.81-.47-1.1-1.51-.63-2.32,1.05-1.83,2.89-3.1,4.81-3.32,1.59-.18,3.08,.39,4.19,1.59,1.13,1.23,2.18,2.52,3.16,3.87,1.61-6.63,3.7-12.17,6.46-17.12-2.06-2.29-3.71-4.46-5.32-7.49-.44-.83-.12-1.86,.71-2.3,.83-.44,1.86-.12,2.3,.71,1.65,3.12,3.32,5.18,5.65,7.69,.51,.55,.6,1.37,.22,2.02-3.43,5.83-5.83,12.55-7.57,21.14-.14,.69-.69,1.23-1.39,1.34-.09,.02-.19,.02-.28,.02Z"/><path class="o" d="M73.41,308.3c-.87,0-1.61-.66-1.69-1.54-1-10.27-.32-19.87,.39-30.02,.13-1.83,.26-3.67,.38-5.53,.41-6.29,.19-12.8-.01-19.1-.2-6.08-.41-12.36-.07-18.54,.05-.94,.85-1.67,1.79-1.61,.94,.05,1.66,.85,1.6,1.79-.33,6.03-.13,12.24,.07,18.25,.21,6.38,.43,12.98,0,19.43-.12,1.86-.25,3.71-.38,5.55-.71,10.01-1.37,19.46-.4,29.46,.09,.93-.59,1.77-1.53,1.86-.06,0-.11,0-.17,0Z"/><path class="o" d="M80.37,223.25c-2.32,0-4.64-.38-6.84-1.13-.89-.3-1.36-1.27-1.06-2.16,.3-.89,1.27-1.36,2.16-1.06,3.57,1.22,7.52,1.26,11.12,.11,.89-.28,1.85,.21,2.14,1.1,.29,.89-.21,1.85-1.1,2.14-2.07,.66-4.25,.99-6.42,.99Z"/><path class="o" d="M211.54,280.59c-.76,0-1.46-.52-1.65-1.29-1.05-4.26-1.59-8.9-2.11-13.39-.3-2.57-.6-5.21-1-7.73l-47.4,.23c-.76,5.58-2.29,11.02-4.54,16.18-.38,.86-1.38,1.25-2.24,.88-.86-.38-1.25-1.38-.88-2.24,2.32-5.31,3.83-10.93,4.46-16.7,.09-.86,.82-1.51,1.68-1.51l50.35-.24h0c.82,0,1.53,.59,1.67,1.4,.54,3.03,.91,6.24,1.27,9.34,.51,4.38,1.03,8.91,2.03,12.97,.23,.91-.33,1.83-1.24,2.06-.14,.03-.27,.05-.41,.05Z"/><path class="j" d="M119.16,224.91c-2.16-4.55-7.23-6.83-12.06-7.11-5.83-.33-11.2-.69-16.43,2.56-3.72,2.31-6.78,5.52-9.98,8.52-3.2,3-6.67,5.88-10.82,7.28-.7,.24,3.03,7.88,3.44,8.55,1.76,2.87,6.39,3.71,5.58,7.4-.4,1.81-2.69,4.32-3.09,6.13,.22-1.01-4.2,.08-4.55,.29-1.44,.86-2.56,2.38-2.7,4.07-.21,2.39,1.24,4.73,3.26,6.02,2.02,1.29,4.52,1.65,6.92,1.48-1.23,.09,.3,4.84,.55,5.32,.79,1.5,2.05,3.13,3.24,4.33,1.87,1.89,4.03,3.45,6.23,4.91,1.48,.98,3.18,1.71,4.47,2.94,2.14,2.04,.32,3.57-.94,5.74-.21,.36-.44,.74-.79,.97-.61,.4-1.46,.23-2.05-.2-.59-.43-.98-1.07-1.36-1.7,.24,.4-8.07,6.14-8.81,6.98-2.86,3.25-4.67,7.32-6.1,11.37-3.12,8.85-4.73,18.22-4.74,27.6,11.63-.56,54.64,1.33,64.22,1.49-.13-9.47-.3-19.17-3.62-28.04-2.71-7.23-7.48-13.67-13.62-18.36-.68,.4-1.33,.81-2.05,1.12-.69-1.8-4.05-2.74-3.29-5.16,.41-1.33,2.26-1.26,3.26-1.68,1.49-.62,2.91-1.39,4.24-2.29,2.67-1.8,5-4.12,6.82-6.78,.48-.71,4.62-8.06,3.71-8.53,2.87,1.48,6.73,.7,8.8-1.79,1.99-2.4,2.22-6.47,.17-8.93-1.14-1.36-5.85-5.27-7.79-3.81,4.23-3.19,5.81-8.85,5.4-14.11-.46-5.88-3.8-11.46-8.76-14.65l-6.74-1.95Z"/><path class="m" d="M107.51,249.7c-.13-.28-.29-.55-.48-.8,.02,.03-7.63,2.79-8.39,2.98-3.25,.8-6.58,1.23-9.93,1.3-2.54,.05-5.47,.24-7.7-1.11-2.41-1.45-4.68-3.85-6.99-5.54-2.2-1.61-4.52-3.4-5.3-6.01,7.62-7.54,16.84-13.46,26.87-17.25,3.88-1.47,8.07-2.63,12.14-1.83,4.07,.81,7.9,4.12,8.02,8.27,1.91-2.72,5.81-3.61,8.93-2.48,3.12,1.13,5.44,3.95,6.52,7.09,1.08,3.14,1.05,6.57,.55,9.85-.45,2.97-1.33,5.98-3.28,8.25-1.96,2.27-5.2,3.63-8.04,2.69-1.04-.35-1.97-.97-2.98-1.38-3.04-1.24-7.08,.08-10.23,.45,.86-1.31,.95-3.07,.29-4.48Z"/><path class="l" d="M83.36,298.14c-.62,.49-1.23,1.01-1.91,1.47-5.92,3.99-9.17,10.53-10.86,17.29-1.63,6.53-2.77,14.44-2.13,21.16,2.18,.29,4.27-.4,6.43-.31,1.63,.07,2.95,.46,4.62,.31,6.09-.54,12,.22,18,.02,2.89-.09,34.77,.35,34.7,.85,.06-.48,.12-.96,.16-1.45,.81-8.2-.29-16.59-3.2-24.3-1.28-3.4-3.53-5.97-4.89-9.21-1.21-2.88-1.42-6.24-3.63-8.62-2.73-2.94-7.56-2.98-11.14-1.18-3.58,1.8-6.21,5.01-8.72,8.14-2.03-.74-3.5-2.48-4.91-4.12-1.41-1.64-2.98-3.33-5.08-3.86-2.85-.73-5.41,2.2-7.45,3.82Z"/><path class="o" d="M103.5,290.06c-.28,0-.55,0-.83-.01-8.66-.25-16.31-3.55-21.53-9.29-5.34-5.88-6.61-17.37-4.76-25.08,.22-.91,1.14-1.47,2.05-1.25,.91,.22,1.48,1.14,1.25,2.05-1.85,7.69-.07,17.55,3.97,21.99,4.59,5.05,11.38,7.95,19.11,8.18,7.21,.19,14.51-2.62,19.06-7.37,5.39-5.65,7.34-14.18,5.35-23.41-.2-.92,.38-1.82,1.3-2.02,.92-.2,1.82,.38,2.02,1.3,2.24,10.35-.03,20-6.22,26.48-5.01,5.25-12.91,8.44-20.79,8.44Z"/><path class="o" d="M93.84,259.65c-.14,1.22-1.25,2.09-2.47,1.95-1.22-.14-2.09-1.25-1.95-2.47,.14-1.22,1.25-2.09,2.47-1.95,1.22,.14,2.09,1.25,1.95,2.46Z"/><path class="o" d="M116.84,259.66c-.14,1.22-1.25,2.09-2.47,1.95-1.22-.14-2.09-1.25-1.95-2.47,.14-1.22,1.25-2.09,2.47-1.95,1.22,.14,2.09,1.25,1.95,2.47Z"/><path class="o" d="M102.68,271.29c-.95,0-2.03-.19-2.82-.9-.69-.62-1.01-1.5-.92-2.48,.09-.93,.91-1.62,1.86-1.53,.81,.08,1.42,.71,1.52,1.48,.29,.03,.77,.03,1.35-.09,.92-.2,1.82,.39,2.02,1.31,.19,.92-.39,1.82-1.31,2.02-.38,.08-1.01,.18-1.7,.18Z"/><path class="o" d="M76.16,272.77c-.08,0-.16,0-.24-.02-4.55-.65-7.76-3.16-8.79-6.88-.97-3.47,.21-7.52,2.79-9.63,2.03-1.66,4.59-1.9,7.01-.66,.84,.43,1.17,1.45,.74,2.29-.43,.83-1.45,1.17-2.29,.74-1.22-.62-2.34-.54-3.32,.26-1.56,1.27-2.28,3.89-1.67,6.08,.47,1.7,1.89,3.84,6,4.43,.93,.13,1.58,1,1.44,1.92-.12,.85-.85,1.46-1.68,1.46Z"/><path class="o" d="M130.88,272.2c-.88,0-1.63-.68-1.69-1.57-.07-.94,.63-1.75,1.57-1.82,3.03-.23,5.15-1.57,5.97-3.79,.71-1.92,.27-4.21-1.09-5.57-1.34-1.35-3.38-1.61-5.75-.74-.88,.32-1.86-.12-2.18-1.01-.33-.88,.12-1.86,1.01-2.18,3.63-1.34,7.03-.78,9.33,1.52,2.3,2.3,3.05,5.98,1.87,9.16-1.29,3.48-4.54,5.67-8.9,6-.04,0-.09,0-.13,0Z"/><path class="o" d="M81.24,255.31c-.69,0-1.31-.42-1.58-1.06-.28-.69-.08-1.49,.5-1.96,.23-.19,.48-.34,.75-.47,.44-.2,.91-.2,1.32-.04,7.37-.98,17.81-5.37,20.03-12.85,.27-.9,1.21-1.41,2.11-1.15,.9,.27,1.41,1.21,1.15,2.11-2.95,9.94-16.37,14.72-24.14,15.4-.05,0-.1,0-.15,0Z"/><path class="o" d="M109.07,253.49c-.64,0-1.25-.36-1.54-.98-.4-.85-.03-1.86,.82-2.26,2.75-1.29,6.03-4.03,7.63-6.37,.53-.77,1.59-.97,2.36-.44,.78,.53,.97,1.59,.44,2.36-1.93,2.83-5.72,6-9,7.53-.23,.11-.48,.16-.72,.16Z"/><path class="o" d="M126.41,257.3c-.84,0-1.56-.61-1.68-1.45-.13-.86,.42-1.68,1.26-1.9,6.65-1.69,7.89-8.62,6.94-14.04-.64-3.62-3.44-15.34-12.63-14.27-.63,.07-1.24-.21-1.59-.72-2.33-3.37-5.96-5.72-9.71-6.3-10.3-1.59-19.14,3.07-22.74,6.07-1.65,1.37-3.13,2.78-4.57,4.14-3.35,3.16-6.51,6.15-11.18,8.39-.84,.41-1.86,.05-2.27-.8-.41-.85-.05-1.86,.8-2.27,4.19-2.01,7.17-4.82,10.31-7.8,1.48-1.39,3-2.84,4.73-4.28,4.04-3.37,13.93-8.6,25.43-6.82,4.34,.67,8.54,3.23,11.4,6.92,9.01-.41,13.84,8.47,15.36,17.14,1.13,6.42-.34,14.57-7.86,17.42-.29,.3-.69,.49-1.14,.51l-.79,.04s-.06,0-.08,0Z"/><path class="o" d="M103.14,283.69c-.08,0-.16,0-.24,0-4.83-.09-10.45-2.98-11.36-9.11-.06-.41,.06-.84,.34-1.15,.28-.31,.69-.47,1.1-.48l19.74,.58c.41,.01,.8,.21,1.06,.53,.26,.32,.37,.74,.29,1.15-1.1,5.88-6.24,8.48-10.94,8.48Zm-8.34-7.85c1.34,3.35,4.97,4.95,8.16,5.01,2.88,.05,6.43-1.14,7.85-4.54l-16.01-.47Z"/><path class="o" d="M72.02,246c-.94,0-1.7-.76-1.7-1.69,0-.94,.75-1.7,1.69-1.71,5.6-.02,11.06-2.21,15.81-6.34,.71-.62,1.78-.54,2.4,.17,.62,.71,.54,1.78-.17,2.4-5.37,4.67-11.6,7.15-18.02,7.17h0Z"/><path class="o" d="M93.28,294.88c-.28,0-.55-.07-.81-.21-.82-.45-1.13-1.48-.68-2.31,.59-1.08,.47-2.64,.33-4.29l-.06-.72c-.07-.94,.64-1.75,1.57-1.82,.92-.07,1.75,.64,1.82,1.57l.05,.7c.16,1.98,.34,4.22-.74,6.19-.31,.57-.89,.89-1.49,.89Z"/><path class="o" d="M110.69,293.41c-.84,0-1.57-.62-1.68-1.47l-.54-3.98c-.13-.93,.52-1.79,1.45-1.92,.93-.11,1.79,.53,1.92,1.46l.54,3.98c.13,.93-.52,1.79-1.46,1.92-.08,.01-.16,.02-.23,.02Z"/><path class="o" d="M132.44,341.8c-.05,0-.11,0-.16,0-.94-.09-1.62-.92-1.53-1.85,.53-5.61,.5-11.31-.1-16.94-.65-6.08-1.45-13.64-6.58-17.4-.31-.23-.61-.44-.89-.63-1.81-1.27-3.51-2.46-4.09-5.69-.14-.8-.22-1.56-.29-2.29-.28-2.86-.49-3.89-2.78-4.49-1.05-.28-2.23-.29-3.4-.26-2.32,5.15-6.27,9.44-11.23,12.18-.64,.35-1.42,.26-1.96-.23-3.79-3.43-6.97-7.64-9.24-12.22-1.47-.02-3.23,.48-4.09,1.51-.15,.4-.23,1.33-.17,1.94,.6,.07,1.14,.44,1.39,1.03,.36,.86-.03,1.85-.89,2.21-5.7,2.42-8.88,5.81-11.75,12.48-2.98,6.94-4.62,14.96-5.02,24.52-.04,.94-.84,1.67-1.77,1.63-.94-.04-1.67-.83-1.63-1.77,.41-9.98,2.14-18.39,5.29-25.72,2.39-5.55,5.28-9.98,11.18-13.14-.49-1.79-.11-4.24,.61-5.18,1.9-2.48,5.7-3.28,8.3-2.77,.53,.1,.98,.46,1.21,.95,1.93,4.14,4.66,7.97,7.95,11.15,4.04-2.54,7.32-6.44,9.09-10.86,.25-.62,.83-1.03,1.5-1.07,1.69-.08,3.61-.18,5.5,.32,4.69,1.24,5.03,4.68,5.3,7.45,.06,.67,.13,1.36,.25,2.02,.33,1.84,1.07,2.36,2.69,3.5,.3,.21,.62,.43,.95,.68,6.34,4.65,7.27,13.4,7.95,19.79,.62,5.85,.66,11.78,.11,17.62-.08,.88-.82,1.54-1.69,1.54Z"/><path class="o" d="M117.72,339.59s-.05,0-.07,0c-.94-.04-1.67-.83-1.63-1.77,.15-3.48,.15-6.66,.15-9.72,0-2.26,0-4.6,.07-7.06,.02-.94,.8-1.66,1.74-1.66,.94,.02,1.68,.8,1.66,1.74-.06,2.42-.06,4.74-.07,6.98,0,3.1,0,6.31-.16,9.86-.04,.91-.79,1.63-1.7,1.63Z"/><path class="o" d="M78.08,339.12h-.03c-.94-.02-1.69-.79-1.67-1.73,.12-7.76,1.3-15.48,3.51-22.92,.27-.9,1.21-1.41,2.11-1.15,.9,.27,1.41,1.21,1.15,2.11-2.12,7.15-3.25,14.55-3.37,22.01-.01,.93-.77,1.67-1.7,1.67Z"/><path class="j" d="M172.74,228.75c-1.58,.22-3.77,.49-4.09,.57-2.05,.52-4,1.28-5.73,2.52-3.38,2.41-6.04,5.83-7.73,9.61-3.13,7.02-3.39,14.92-3.61,22.6-3.45,.15-6.51,3.24-6.64,6.69-.12,3.22,2.09,6.01,5.16,6.64-1.65,1.56-2.37,3.91-2.37,6.18,0,2.27,.65,4.49,1.39,6.63,.5,1.47,1.18,3.06,2.59,3.7,.62,.29,1.32,.35,2,.4,3.26,.28,7.59,1.42,10.77,.65,1.86-.45,5.22-2.85,6.62-.55,2.31,3.81-5.72,7.04-8.38,6.4-1.73,1.78-4.46,2-6.73,2.98-4.07,1.76-6.6,6.03-7.51,10.37-.91,4.34-.46,8.84-.15,13.27,.3,4.43,.43,8.99-1.06,13.17,.31-1.18,54.83-.65,59.77-.82-1.11-7.12-2.22-14.24-3.33-21.36-.5-3.2-.39-14.61-5.72-14.2-.69,.05-1.35,.33-2.03,.32-1.8-.01-2.99-1.81-3.84-3.4-.58,.28-.91,.99-.75,1.62-1.51-1.14-4.06-2.41-5.1-3.98-.16-.25-1.13-4.32-1.17-4.3,1.57-.79,3.15-1.58,4.72-2.37,.75,2.48,3.56,3.71,6.13,4.04,2.57,.33,5.26,.09,7.67,1.02,1.73-2.94,4.33-6.15,5.1-9.47,.18-.79,.43-9.93-.96-9.45,3.13-1.07,5.39-4.26,5.37-7.56-.02-3.3-2.34-6.46-5.48-7.49,1.3-13.36-6.04-27.16-17.84-33.55,1.95-3.08,1.58-7.44-.86-10.15-2.44-2.71-6.73-3.55-10-1.95-1.9,.93-3.36,2.63-4.13,4.59-.86,2.2-.19,4.11-.41,6.33,0,.05-.72,.16-1.64,.29Z"/><path class="m" d="M152.33,261.32c-.15,.09-.3,.18-.44,.27,0,0-.23-4.67-.16-5.17,.25-1.94,.91-3.66,1.71-5.43,1.39-3.04,2.4-6.16,4.52-8.85,4.24-5.39,10.59-9.06,17.37-10.05,9.46-1.38,19.58,2.75,25.17,10.5,3.96,5.5,5.6,12.62,4.43,19.29l-8.52-9.03c-1.28-1.36-2.57-2.72-4.05-3.84-4.04-3.06-9.32-4.13-14.38-3.95-5.07,.18-10.02,1.5-14.92,2.81-1.71,.46-3.05,5.45-4.02,6.79-1.77,2.42-4.12,5.01-6.7,6.65Z"/><path class="k" d="M176.24,225.58c1.11-2.94,2.81-5.51,6.59-5.33,3.15,.15,6.55,3.3,6.31,6.56-3.7-1.82-9.37-.02-13.37,.14,.15-.46,.3-.92,.47-1.37Z"/><path class="n" d="M165.54,304.87c-.98-.82-1.88-1.73-2.68-2.72-.26-.32-3.98,2.05-4.31,2.53-1.21-1.11-3.14-1.19-4.61-.45-1.47,.74-4.31,8.28-4.6,10.47-.68,5.26-.08,21.56,.68,24.15,.52,1.77,.63,1.45,2.41,1.74,.87,.14,1.61,.42,2.52,.48,6.06,.39,12.27-.18,18.34-.39,5.87-.2,11.84-.8,17.71-.61,4.47,.14,8.94,.7,13.36,.3,.87-5.36,1.17-10.82,.91-16.25-.22-4.48-1.72-18.85-3.15-19.37-1.43-.53-5.27-1.51-5.94-.14-.96-.88-1.93-1.75-2.89-2.63-.71,1.47-1.13,3.2-2.24,4.37-1.29,1.38-3.46,2.24-5.22,2.79-6.89,2.12-14.79,.36-20.28-4.26Z"/><path class="m" d="M149.74,279.48c-1.96,4.09-2.01,9.05-.14,13.18,.66,1.47,1.84,3,3.45,2.99,.97,0,1.83-.58,2.77-.8,1.46-.34,2.96,.18,4.36,.72,1.4,.54,2.87,1.12,4.34,.89s2.89-1.63,2.54-3.08c-6.13-2.53-10.97-7.99-12.75-14.38l-4.56,.48Z"/><path class="m" d="M201.9,279.56c-2.53,6.03-7.18,11.14-12.95,14.23,1.67,1.46,4.03,2.09,6.2,1.67,.49,1.4,2.18,2.11,3.65,1.9,1.47-.21,2.74-1.14,3.83-2.16,4.64-4.38,6.84-11.18,5.65-17.45l-6.38,1.8Z"/><path class="m" d="M181.36,324.48c-1.82,.27-3.76,.15-5.81-.05-.78-.08-12.68-2.09-11.37-3.88-2.26,3.08-3.6,6.83-3.79,10.65-.18,3.44,.63,7.02-.06,10.4,11.75-.2,23.5-.74,35.23-1.6-.95-4.48-1.29-10.82-.7-15.39-1.56,.02-3.09-.29-4.44-1.06-.82-.46-1.07-2.02-2.11-2.17-1.72-.25-4.6,2.75-6.94,3.1Z"/><path class="o" d="M178.8,295.94c-.31,0-.61,0-.92-.01-8.28-.24-15.58-3.39-20.56-8.87-5.11-5.62-6.32-16.59-4.55-23.96,.22-.91,1.14-1.47,2.05-1.25,.91,.22,1.47,1.14,1.25,2.05-1.76,7.3-.07,16.67,3.76,20.88,4.36,4.79,10.8,7.55,18.15,7.76,7.13,.2,13.88-2.26,18.02-6.59,3.96-4.15,7.39-12.27,5.16-22.64-.2-.92,.38-1.82,1.3-2.02,.92-.2,1.82,.38,2.02,1.3,2.14,9.91-.11,19.52-6.02,25.71-4.61,4.83-11.91,7.66-19.66,7.66Z"/><path class="o" d="M169.29,268.32c-.14,1.22-1.25,2.09-2.47,1.95-1.22-.14-2.09-1.25-1.95-2.47,.14-1.22,1.25-2.09,2.47-1.95,1.22,.14,2.09,1.25,1.95,2.46Z"/><path class="o" d="M192.29,268.32c-.14,1.22-1.25,2.09-2.47,1.95-1.22-.14-2.09-1.25-1.95-2.47,.14-1.22,1.25-2.09,2.47-1.95,1.22,.14,2.09,1.25,1.95,2.47Z"/><path class="o" d="M178.16,278.06c-.92,0-1.98-.19-2.74-.87-.67-.6-.99-1.47-.9-2.43,.09-.93,.92-1.62,1.86-1.53,.78,.08,1.39,.67,1.51,1.42,.27,.02,.7,.01,1.2-.09,.93-.2,1.82,.39,2.02,1.31,.19,.92-.39,1.82-1.31,2.02-.37,.08-.97,.18-1.64,.18Zm-1.95-3.13l1.69,.17h0l-1.69-.17Z"/><path class="o" d="M152.63,279.47c-.08,0-.16,0-.24-.02-4.37-.63-7.45-3.04-8.44-6.61-.93-3.34,.2-7.23,2.69-9.26,1.96-1.6,4.43-1.83,6.77-.63,.84,.43,1.17,1.45,.74,2.29-.43,.84-1.46,1.17-2.29,.74-1.13-.58-2.17-.5-3.07,.24-1.46,1.2-2.13,3.65-1.56,5.71,.44,1.59,1.78,3.6,5.65,4.16,.93,.13,1.58,1,1.44,1.92-.12,.85-.85,1.46-1.68,1.46Z"/><path class="o" d="M204.75,278.93c-.88,0-1.63-.68-1.69-1.57-.07-.94,.63-1.75,1.57-1.82,2.85-.21,4.84-1.48,5.62-3.56,.67-1.8,.25-3.95-1.02-5.22-1.26-1.26-3.17-1.5-5.39-.68-.88,.32-1.86-.12-2.18-1.01-.33-.88,.12-1.86,1.01-2.18,3.48-1.29,6.76-.75,8.98,1.47,2.21,2.22,2.93,5.76,1.8,8.81-1.24,3.35-4.36,5.45-8.55,5.77-.04,0-.09,0-.13,0Z"/><path class="o" d="M207.07,264.74c-.11,0-.22-.01-.34-.03-.92-.18-1.52-1.08-1.33-2,1.56-7.79,0-15.73-4.25-21.79-4.15-5.9-10.39-10.11-16.7-11.26-9.25-1.68-17.34,2.24-20.67,4.82-8.06,6.27-12.48,17.27-11.26,28.04,.11,.93-.57,1.78-1.5,1.88-.93,.1-1.78-.57-1.88-1.5-1.35-11.92,3.58-24.13,12.56-31.11,3.77-2.93,12.93-7.38,23.36-5.48,7.17,1.3,14.23,6.03,18.88,12.65,4.79,6.81,6.54,15.71,4.8,24.41-.16,.81-.87,1.37-1.67,1.37Z"/><path class="o" d="M178.61,289.72c-.07,0-.15,0-.22,0-4.5-.08-9.72-2.82-10.56-8.64-.06-.41,.07-.83,.34-1.15,.28-.31,.69-.47,1.1-.47l18.18,.54c.41,.01,.8,.2,1.06,.53,.26,.32,.37,.74,.29,1.15-1.02,5.58-5.82,8.05-10.19,8.05Zm-7.52-7.37c1.26,3.03,4.5,4.48,7.35,4.53,2.57,.04,5.76-1.03,7.09-4.1l-14.44-.43Z"/><path class="o" d="M151.19,296.28c-.56,0-1.12-.28-1.44-.79-3.58-5.67-4.4-13.12-2.14-19.43,.32-.88,1.29-1.34,2.17-1.03,.88,.32,1.35,1.29,1.03,2.17-1.91,5.35-1.22,11.66,1.82,16.47,.5,.79,.26,1.84-.53,2.35-.28,.18-.6,.26-.91,.26Z"/><path class="o" d="M203.46,297.97c-.48,0-.96-.2-1.29-.6-.61-.71-.52-1.79,.19-2.4,4.83-4.12,6.87-11.23,4.95-17.28-.28-.9,.21-1.85,1.11-2.13,.9-.28,1.85,.21,2.13,1.11,2.31,7.32-.15,15.91-5.99,20.89-.32,.27-.71,.41-1.1,.41Z"/><path class="o" d="M164.8,246.88c-.08,0-.15,0-.23-.02-.93-.13-1.58-.98-1.46-1.91,1.04-7.62,6.08-14.78,13.15-18.69,.82-.45,1.86-.16,2.31,.67,.46,.82,.16,1.86-.67,2.31-6.15,3.4-10.53,9.6-11.43,16.17-.12,.85-.85,1.47-1.68,1.47Z"/><path class="o" d="M179.56,245.48c-.08,0-.16,0-.24-.02-.93-.13-1.58-.99-1.45-1.92l1.92-13.68c.13-.93,.99-1.57,1.92-1.45,.93,.13,1.58,.99,1.45,1.92l-1.92,13.68c-.12,.85-.85,1.46-1.68,1.46Z"/><path class="o" d="M192.23,248.47c-.06,0-.12,0-.18,0-.93-.1-1.61-.94-1.51-1.87,.46-4.22-1.77-12.05-4.57-16.11-.53-.77-.34-1.83,.43-2.37,.77-.54,1.83-.34,2.37,.43,2.92,4.23,5.75,12.83,5.15,18.41-.09,.87-.83,1.52-1.69,1.52Z"/><path class="o" d="M190.13,229.24c-.18,0-.36-.03-.54-.09-.89-.3-1.37-1.26-1.07-2.15,.72-2.17,.11-4.81-1.5-6.43-1.63-1.65-4.21-2.27-6.42-1.56-1.66,.54-3.21,4.19-3.69,7.27-.14,.93-1.01,1.57-1.94,1.42-.93-.14-1.56-1.01-1.42-1.94,.13-.87,1.45-8.51,6-9.99,3.4-1.1,7.37-.13,9.88,2.4,2.51,2.54,3.44,6.52,2.31,9.91-.24,.71-.9,1.16-1.61,1.16Z"/><path class="o" d="M151.36,264.55c-.7,0-1.36-.44-1.61-1.14-.31-.89,.16-1.86,1.05-2.16,3.31-1.15,8-8.09,9.31-12.01,.3-.89,1.26-1.37,2.15-1.08,.89,.3,1.37,1.26,1.08,2.15-1.34,4.02-6.45,12.43-11.42,14.15-.18,.06-.37,.09-.56,.09Z"/><path class="o" d="M204.57,265.44c-.24,0-.49-.05-.72-.16-4.34-2.02-9.83-13.31-10.54-16.93-.18-.92,.42-1.82,1.34-2,.93-.18,1.82,.42,2,1.34,.71,3.62,5.9,13.23,8.64,14.51,.85,.4,1.22,1.41,.82,2.26-.29,.62-.9,.98-1.54,.98Z"/><path class="o" d="M164.95,303.61c-.73,0-1.41-.48-1.63-1.22-.27-.9,.24-1.85,1.14-2.12,2.58-.77,5.33-3,4.56-6.74-.19-.92,.4-1.82,1.32-2.01,.92-.18,1.82,.4,2.01,1.32,1,4.86-1.78,9.16-6.92,10.69-.16,.05-.33,.07-.49,.07Z"/><path class="o" d="M189.96,303.77c-.31,0-.62-.08-.9-.26-3.18-1.97-6.02-4.19-5.87-9.51,.03-.94,.82-1.63,1.75-1.65,.94,.03,1.68,.81,1.65,1.75-.09,3.23,1.04,4.52,4.27,6.52,.8,.5,1.04,1.54,.55,2.34-.32,.52-.88,.8-1.45,.8Z"/><path class="o" d="M147.46,340.61c-.06,0-.11,0-.17,0-.93-.09-1.62-.92-1.53-1.86,.32-3.23,.4-6.4,.48-9.46,.13-4.97,.27-10.11,1.38-15.86,.48-2.47,3.43-9.7,7.26-11.37,1.01-.44,2.05-.49,3.01-.16,.83-.4,1.57-.97,2.19-1.45,.43-.33,.8-.62,1.18-.84,.81-.48,1.85-.21,2.33,.6,.48,.81,.21,1.85-.6,2.33-.19,.11-.5,.35-.83,.6-.91,.7-2.15,1.66-3.75,2.21-.49,.17-1.02,.11-1.46-.17-.2-.13-.37-.16-.71-.02-2.13,.93-4.81,6.46-5.28,8.9-1.05,5.47-1.19,10.47-1.31,15.3-.08,3.12-.17,6.35-.5,9.71-.09,.88-.83,1.54-1.69,1.54Z"/><path class="o" d="M206.49,340.45c-.91,0-1.67-.72-1.7-1.64-.13-3.71-.76-8.56-1.32-12.83-.28-2.11-.54-4.1-.7-5.72-1.22-11.81-3.36-14.07-4.23-14.5-.15-.07-.56-.27-1.46,.29-.67,.42-1.53,.32-2.09-.23-.74-.73-1.27-1.38-1.7-1.91-.71-.88-1.11-1.37-2.01-1.76-.86-.37-1.26-1.38-.88-2.24,.37-.86,1.38-1.25,2.24-.88,1.67,.72,2.46,1.71,3.3,2.74,.2,.25,.41,.51,.64,.77,1.47-.51,2.66-.22,3.47,.17,3.16,1.55,5.04,6.85,6.11,17.2,.16,1.58,.42,3.55,.69,5.63,.57,4.35,1.21,9.28,1.35,13.15,.03,.94-.7,1.73-1.64,1.76-.02,0-.04,0-.06,0Z"/><path class="o" d="M178.47,311.94c-.73,0-1.42-.04-2.04-.13-5.96-.78-12.89-5.45-14.83-9.99-.37-.86,.03-1.86,.9-2.23,.86-.37,1.86,.03,2.23,.9,1.48,3.46,7.38,7.33,12.14,7.96,2.83,.37,6.97-.25,9.87-2.47,1.89-1.46,3.01-3.4,3.31-5.77,.12-.93,.97-1.59,1.9-1.47,.93,.12,1.59,.97,1.47,1.9-.42,3.26-2.02,6.04-4.61,8.03-3.17,2.44-7.2,3.28-10.34,3.28Z"/><path class="o" d="M160.05,340.81c-.86,0-1.6-.65-1.69-1.53-.73-7.24-1.06-14.6-1-21.88,0-.93,.77-1.69,1.7-1.69h.02c.94,0,1.69,.78,1.69,1.72-.07,7.15,.27,14.38,.98,21.5,.09,.93-.59,1.77-1.52,1.86-.06,0-.12,0-.17,0Z"/><path class="o" d="M195.62,340.35c-.91,0-1.66-.72-1.7-1.64l-.69-18.17c-.04-.94,.7-1.73,1.63-1.76,.93-.05,1.73,.7,1.76,1.63l.69,18.17c.04,.94-.7,1.73-1.63,1.76-.02,0-.04,0-.07,0Z"/><path class="j" d="M134.35,300.94c-.99-.62-2.57-.77-4.82-.05-1.8,.58-3.14,1.77-4.06,3.07-1.13,1.6-1.54,3.85,.31,5.02,1.08,.68,2.66,.76,3.99,.43,1.33-.33,2.46-1.01,3.47-1.74,2.63-1.9,3.21-5.41,1.09-6.74Z"/><path class="o" d="M128.25,311.3c-1.25,0-2.43-.3-3.36-.88-1.06-.67-1.75-1.64-1.98-2.82-.29-1.46,.14-3.14,1.18-4.62,1.27-1.79,2.97-3.07,4.92-3.7,3.22-1.04,5.17-.45,6.24,.22h0c1.27,.8,2.03,2.17,2.08,3.75,.07,2.15-1.11,4.37-3.08,5.8-.99,.72-2.35,1.59-4.07,2.01-.65,.16-1.3,.24-1.94,.24Zm3.99-9.19c-.52,0-1.23,.1-2.18,.4-1.58,.51-2.61,1.6-3.19,2.43-.48,.69-.73,1.47-.63,1.99,.04,.18,.12,.4,.46,.61,.6,.38,1.68,.47,2.68,.22,1.15-.28,2.14-.93,2.88-1.46,1.19-.86,1.7-2.1,1.67-2.93-.02-.69-.37-.91-.49-.99h0c-.17-.11-.54-.27-1.21-.27Z"/><path class="j" d="M135.94,309.34c-.18-.37-.45-.7-.84-.94-4.45-2.8-12.44,5.96-2.82,6.84,2.49,.23,4.7-3.71,3.66-5.9Z"/><path class="o" d="M132.49,316.95c-.12,0-.24,0-.36-.02-4.19-.38-5.54-2.15-5.94-3.57-.53-1.88,.47-4.1,2.55-5.66,2.35-1.76,5.2-2.05,7.27-.75,.64,.41,1.14,.96,1.47,1.65h0c.8,1.69,.47,4-.86,5.9-1.08,1.55-2.6,2.44-4.13,2.44Zm.64-7.4c-.8,0-1.68,.38-2.35,.88-1.06,.79-1.41,1.67-1.31,2.01,.08,.29,.81,.9,2.98,1.1,.38,.02,.95-.36,1.38-.98,.66-.94,.81-2.01,.58-2.49-.05-.1-.11-.17-.21-.23-.32-.2-.68-.29-1.07-.29Z"/><path class="j" d="M120.33,300.47c-1.92,.21-3.64-.17-3.74-2.02-.19-3.34,7.09-7.81,9.93-6.19,2.93,1.68,.9,5.42-1.22,6.67-.83,.49-3,1.33-4.97,1.54Z"/><path class="o" d="M119.44,302.22c-1.39,0-2.49-.34-3.28-1.01-.53-.45-1.19-1.28-1.26-2.67-.18-3.26,3.51-5.8,4.64-6.5,1.13-.7,5.04-2.85,7.83-1.26,1.48,.85,2.31,2.21,2.32,3.83,.02,2.42-1.76,4.74-3.52,5.78-.99,.59-3.4,1.52-5.65,1.77h0c-.38,.04-.74,.06-1.08,.06Zm.89-1.75h0Zm4.72-6.85c-.8,0-2.16,.35-3.73,1.32-2.15,1.33-3.07,2.8-3.04,3.42,0,.05,.02,.22,.07,.26,.02,.01,.4,.32,1.79,.17h0c1.77-.2,3.7-.97,4.29-1.32,.97-.57,1.85-1.92,1.85-2.83,0-.29-.08-.6-.61-.9-.13-.08-.35-.12-.63-.12Z"/><path class="j" d="M131.44,299.68c.77-1.19-.79-2.68-2.42-2.77-1.63-.09-3.11,.7-4.46,1.47-.99,.56-2.01,1.14-2.71,1.95-.7,.81-1.04,1.91-.54,2.82,.7,1.28,2.81,1.67,4.41,1.19,1.6-.47,2.81-1.56,3.95-2.61l1.76-2.05Z"/><path class="o" d="M124.35,306.23c-1.82,0-3.68-.71-4.53-2.26-.79-1.45-.5-3.31,.75-4.75,.9-1.04,2.1-1.72,3.16-2.32,1.27-.72,3.18-1.8,5.39-1.68,1.63,.09,3.19,1.04,3.87,2.38,.51,1,.47,2.09-.12,3.01-.04,.07-.09,.13-.14,.19l-1.76,2.05s-.09,.1-.14,.14c-1.16,1.07-2.6,2.39-4.62,2.99-.58,.17-1.21,.26-1.85,.26Zm4.41-7.62c-1.06,0-2.16,.57-3.37,1.25-.86,.48-1.74,.98-2.26,1.58-.31,.36-.42,.74-.34,.89,.21,.37,1.38,.69,2.44,.38,1.23-.36,2.24-1.27,3.21-2.16l1.36-1.58c-.18-.16-.51-.34-.88-.36-.05,0-.11,0-.16,0Zm2.67,1.07h0Z"/><path class="o" d="M219.55,281.55c-.24,0-.48-.05-.71-.16-1.99-.93-4.87-.63-7.89-.22l-.67,.09c-.94,.11-1.78-.54-1.9-1.47-.12-.93,.54-1.78,1.47-1.9l.64-.08c3.55-.48,6.97-.8,9.79,.51,.85,.4,1.22,1.41,.83,2.26-.29,.62-.9,.99-1.54,.99Z"/><path class="o" d="M221.04,341.8s-.04,0-.06,0c-.94-.03-1.67-.82-1.64-1.76,.39-10.69,.49-21.54,.3-32.25-.02-.94,.73-1.71,1.67-1.73,.01,0,.02,0,.03,0,.92,0,1.68,.74,1.7,1.67,.2,10.77,.09,21.68-.3,32.43-.03,.92-.79,1.64-1.7,1.64Z"/><path class="o" d="M38.12,334.87s-.07,0-.11,0c-.94-.06-1.65-.87-1.59-1.8,.9-14.44,1.67-29.08,2.29-43.54,.26-6.15,.24-12.2-.07-18.49-.16-3.17-.04-6.36,.07-9.44,.14-3.79,.28-7.71-.1-11.55-.09-.93,.59-1.77,1.53-1.86,.94-.09,1.77,.59,1.86,1.53,.4,4.06,.25,8.1,.11,12-.11,3.01-.22,6.12-.07,9.15,.31,6.4,.34,12.55,.07,18.8-.62,14.48-1.39,29.15-2.29,43.61-.06,.9-.81,1.6-1.7,1.6Z"/><path class="o" d="M88.04,292.11c-.94,0-1.7-.76-1.7-1.7v-3.75c0-.94,.76-1.7,1.7-1.7s1.7,.76,1.7,1.7v3.75c0,.94-.76,1.7-1.7,1.7Z"/><path class="o" d="M147.46,334.11c-.84,0-1.57-.62-1.68-1.47-.7-5.11-.09-9.69,.49-14.13,.4-3.05,.82-6.2,.82-9.54v-14.06c0-.94,.76-1.7,1.7-1.7s1.7,.76,1.7,1.7v14.06c0,3.57-.43,6.83-.84,9.98-.58,4.41-1.13,8.57-.49,13.22,.13,.93-.52,1.79-1.45,1.92-.08,0-.16,.02-.23,.02Z"/><path class="o" d="M184.71,202.78c-4.48,0-8.31-3.13-10.25-8.37-.16-.44-.1-.93,.17-1.31,.27-.38,.7-.6,1.16-.6h.02l17.7,.26c.46,0,.89,.23,1.15,.61,.26,.38,.32,.86,.17,1.29-1.81,5-5.67,8.11-10.08,8.12h-.03Zm-6.71-7.42c1.61,2.9,4.02,4.58,6.71,4.58h.02c2.63,0,5.03-1.65,6.57-4.39l-13.3-.2Z"/><path class="o" d="M82.67,190.68c-4.82,0-8.96-3.08-11.08-8.26-.18-.44-.13-.94,.14-1.33,.27-.39,.75-.65,1.19-.62l19.37,.26c.47,0,.9,.24,1.16,.63,.26,.39,.31,.88,.14,1.31-1.97,4.92-6.14,7.99-10.88,8.01h-.04Zm-7.45-7.35c1.78,2.86,4.45,4.51,7.45,4.51h.03c2.92-.01,5.58-1.62,7.29-4.32l-14.76-.2Z"/><path class="o" d="M177.61,326.78c-.35,0-.71,0-1.06-.03-4.05-.23-7.95-1.8-11.05-4.39-.61,1.34-1.41,2.59-2.37,3.71-.61,.71-1.68,.8-2.4,.18-.71-.61-.8-1.69-.18-2.4,1.23-1.43,2.12-3.15,2.59-4.98,.16-.61,.64-1.08,1.25-1.23,.61-.15,1.25,.05,1.67,.53,2.71,3.06,6.6,4.95,10.68,5.18,4.02,.24,8.21-1.24,11.21-3.92,.64-.57,1.61-.58,2.26-.01l3.96,3.48c.71,.62,.77,1.69,.15,2.4-.62,.7-1.69,.77-2.4,.15l-2.88-2.53c-3.27,2.48-7.33,3.85-11.44,3.85Z"/><path class="o" d="M164.41,323.69c-.81,0-1.53-.58-1.67-1.41l-2.99-17c-.16-.92,.46-1.81,1.38-1.97,.93-.16,1.81,.46,1.97,1.38l2.99,17c.16,.93-.46,1.81-1.38,1.97-.1,.02-.2,.03-.3,.03Z"/><path class="o" d="M189.7,323.68c-.17,0-.34-.03-.51-.08-.9-.28-1.39-1.24-1.11-2.13,.3-.94,.56-1.94,.83-2.94,.59-2.21,1.2-4.5,2.19-6.55,.23-.48,.46-.93,.69-1.38,.92-1.81,1.64-3.25,1.86-5.27,.1-.93,.94-1.6,1.87-1.51,.93,.1,1.61,.94,1.51,1.87-.28,2.65-1.22,4.49-2.21,6.45-.21,.42-.44,.86-.66,1.32-.85,1.77-1.42,3.9-1.97,5.95-.27,1.02-.55,2.07-.87,3.08-.23,.73-.9,1.19-1.62,1.19Z"/><path class="o" d="M89.54,304.36c-.38,0-.77-.13-1.09-.4-2.05-1.72-3.69-3.93-4.73-6.39-.36-.87,.04-1.86,.91-2.23,.87-.37,1.86,.04,2.23,.91,.83,1.97,2.13,3.74,3.77,5.11,.72,.6,.82,1.67,.21,2.4-.34,.4-.82,.61-1.31,.61Z"/><path class="o" d="M107.03,305.36c-.79,0-1.5-.56-1.67-1.37-.18-.92,.41-1.82,1.33-2,3.3-.66,6.2-2.02,8.18-3.84,.69-.64,1.77-.59,2.4,.1,.64,.69,.59,1.77-.1,2.4-2.43,2.23-5.91,3.89-9.81,4.67-.11,.02-.23,.03-.34,.03Z"/><g><path d="M17.26,5.78c0,.25-.09,.48-.28,.66s-.42,.28-.68,.28h-6.3c-.12,0-.17,.06-.14,.18,.25,2.06,.97,3.9,2.14,5.51,1.17,1.61,2.75,2.96,4.73,4.04,.23,.13,.37,.33,.44,.57,.07,.25,.03,.49-.12,.71-.16,.24-.38,.4-.66,.47-.28,.07-.55,.04-.8-.09-1.53-.83-2.88-1.91-4.05-3.24-1.18-1.33-2.09-2.81-2.75-4.45-.01-.03-.03-.04-.06-.04s-.05,.01-.06,.04c-.67,1.63-1.61,3.11-2.81,4.45-1.2,1.33-2.58,2.41-4.13,3.24-.25,.13-.52,.16-.8,.09-.28-.07-.5-.23-.66-.47-.15-.23-.19-.46-.13-.71,.06-.25,.2-.44,.43-.57,1.98-1.08,3.56-2.43,4.73-4.04,1.17-1.61,1.88-3.45,2.14-5.51,.03-.12-.02-.18-.14-.18H.96c-.27,0-.5-.09-.68-.28-.19-.19-.28-.41-.28-.66,0-.27,.09-.49,.28-.68,.19-.19,.41-.28,.68-.28H7.35c.12,0,.18-.06,.18-.18V1.91c0-.31,.11-.57,.33-.78,.22-.21,.48-.32,.77-.32s.55,.11,.77,.32c.22,.21,.33,.48,.33,.78v2.73c0,.12,.06,.18,.18,.18h6.38c.27,0,.5,.09,.68,.28s.28,.41,.28,.68Z"/><path d="M20.19,8.39c-.24,.05-.46,0-.66-.14-.2-.15-.31-.35-.34-.6-.03-.27,.04-.5,.19-.71,.15-.21,.36-.34,.61-.39l.86-.18c.11-.03,.16-.09,.16-.2V2.13c0-.28,.1-.52,.3-.72,.2-.2,.44-.3,.72-.3s.53,.1,.73,.3c.21,.2,.31,.44,.31,.72v3.61c0,.12,.05,.17,.16,.14l3.75-.78c.24-.05,.46,0,.67,.14,.21,.15,.32,.35,.35,.6,.03,.27-.04,.51-.2,.72-.16,.21-.37,.35-.62,.4l-3.95,.8c-.11,.03-.16,.09-.16,.2v4.7c0,.47,.04,.74,.12,.82,.08,.08,.39,.12,.92,.12,.32,0,.54-.01,.67-.04,.13-.03,.26-.08,.4-.15s.23-.23,.27-.48,.08-.54,.11-.86c.03-.33,.06-.82,.07-1.47,.01-.25,.11-.46,.3-.61,.19-.15,.41-.22,.66-.19,.25,.03,.47,.14,.64,.34,.17,.2,.25,.44,.24,.7-.03,.76-.06,1.37-.11,1.83-.05,.46-.13,.87-.24,1.23-.11,.37-.23,.64-.36,.8-.13,.17-.34,.31-.63,.42-.29,.11-.59,.18-.88,.2-.29,.02-.71,.03-1.24,.03-1.39,0-2.24-.13-2.55-.39-.31-.26-.46-.99-.46-2.18v-4.4c0-.12-.05-.17-.16-.14l-.66,.14Zm13.41,7.87c.51,0,.88-.2,1.12-.59,.24-.39,.43-1.34,.57-2.83,.14-1.49,.21-3.78,.21-6.85V3.93c0-.11-.05-.16-.16-.16h-2.69c-.12,0-.18,.05-.18,.16-.11,3.65-.55,6.52-1.33,8.59-.78,2.07-2.09,3.88-3.92,5.42-.23,.19-.5,.28-.8,.28s-.58-.1-.8-.3c-.2-.19-.3-.41-.29-.67,0-.26,.12-.48,.33-.65,1.67-1.35,2.87-2.94,3.58-4.78s1.13-4.46,1.23-7.89c0-.11-.05-.16-.16-.16h-3.29c-.25,0-.47-.09-.65-.27s-.27-.4-.27-.67,.09-.47,.26-.65c.17-.18,.39-.27,.66-.27h9.47c.31,0,.57,.11,.79,.34,.22,.23,.33,.49,.33,.8v1.61c0,2.11-.02,3.89-.06,5.33-.04,1.44-.12,2.67-.25,3.7-.13,1.03-.27,1.84-.43,2.42-.16,.58-.39,1.03-.69,1.35-.3,.32-.61,.53-.92,.62s-.73,.14-1.25,.14c-.43,0-1.14-.05-2.15-.16-.28-.03-.52-.14-.7-.35-.19-.21-.28-.45-.28-.73,0-.25,.09-.46,.28-.63s.42-.24,.68-.21c.72,.08,1.31,.12,1.77,.12Z"/><path d="M41.54,15.2c-.25,.11-.5,.12-.75,.03-.25-.09-.44-.26-.54-.5-.11-.24-.11-.48,0-.72,1.18-2.86,2.19-5.67,3.05-8.43,.03-.11-.01-.16-.12-.16h-1.97c-.25,0-.47-.09-.64-.26-.17-.17-.26-.39-.26-.64s.09-.47,.26-.64c.17-.17,.39-.26,.64-.26h2.49c.12,0,.19-.05,.22-.16,.27-.94,.44-1.55,.52-1.85,.07-.27,.21-.48,.44-.63,.23-.15,.47-.21,.74-.17,.25,.03,.45,.15,.59,.36,.14,.21,.18,.45,.13,.7-.09,.36-.23,.89-.42,1.58-.03,.11,.01,.16,.12,.16h2.49c.25,0,.47,.09,.64,.26s.26,.39,.26,.64-.09,.47-.26,.64-.39,.26-.64,.26h-3.01c-.09,0-.17,.06-.22,.18-.91,3.02-1.99,6.04-3.23,9.05-.11,.25-.28,.44-.53,.55ZM56.9,3.89c.25,.03,.46,.14,.6,.34,.15,.2,.21,.43,.18,.68-.03,.24-.14,.43-.34,.58s-.42,.21-.66,.18c-.98-.12-1.88-.19-2.71-.2-.13,0-.2,.05-.2,.16v6.58c0,.08,.05,.16,.16,.24,1.11,.66,2.18,1.42,3.21,2.29,.2,.17,.31,.39,.32,.65,.01,.26-.07,.49-.24,.69-.17,.2-.4,.31-.66,.33s-.51-.06-.72-.23c-.78-.63-1.43-1.13-1.95-1.51-.09-.07-.15-.05-.18,.06-.15,1.16-.58,2.01-1.29,2.53-.72,.52-1.77,.78-3.16,.78s-2.53-.32-3.32-.97c-.8-.65-1.19-1.53-1.19-2.64s.39-1.94,1.17-2.57,1.9-.94,3.34-.94c.74,0,1.52,.15,2.35,.44,.11,.03,.16-.01,.16-.12V4.76c0-.31,.11-.57,.34-.8s.49-.33,.8-.32c1.55,.04,2.88,.13,3.99,.26Zm-5.14,9.79v-.16c0-.11-.04-.18-.12-.22-.87-.41-1.67-.62-2.39-.62-1.67,0-2.51,.59-2.51,1.77,0,.6,.22,1.07,.66,1.4,.44,.33,1.06,.5,1.85,.5,.96,0,1.62-.19,1.98-.56,.35-.37,.53-1.08,.53-2.11Z"/><path d="M60.66,10.88c-.27,0-.49-.09-.67-.28s-.27-.41-.27-.66,.09-.47,.27-.66,.4-.28,.67-.28h7.27c.11,0,.16-.06,.16-.18v-1.08c0-.36,.15-.66,.44-.88,.07-.05,.15-.13,.26-.24,.03-.04,.08-.09,.16-.14,1.3-.84,2.6-1.83,3.91-2.97,.03-.03,.04-.05,.03-.08,0-.03-.02-.04-.05-.04h-9.59c-.25,0-.47-.09-.65-.27-.18-.18-.27-.41-.27-.67s.09-.47,.27-.65c.18-.18,.4-.27,.65-.27h11.5c.27,0,.49,.09,.66,.27,.17,.18,.26,.4,.26,.65,0,.63-.22,1.15-.66,1.57-1.45,1.35-2.97,2.55-4.58,3.61-.09,.07-.14,.15-.14,.26v.94c0,.12,.06,.18,.18,.18h6.56c.27,0,.49,.09,.67,.28s.27,.41,.27,.66-.09,.48-.27,.66-.41,.28-.67,.28h-6.56c-.12,0-.18,.06-.18,.18v4.4c0,1.33-.15,2.14-.45,2.45-.3,.31-1.09,.46-2.36,.46-.55,0-1.3-.02-2.27-.06-.27-.01-.5-.11-.68-.3-.19-.19-.29-.41-.3-.66-.01-.25,.07-.47,.24-.64s.39-.25,.64-.24c.58,.03,1.23,.04,1.97,.04,.48,0,.77-.05,.86-.14s.14-.39,.14-.9v-4.4c0-.12-.05-.18-.16-.18h-7.27Z"/><path d="M83.01,1.73c.07-.28,.21-.5,.44-.66,.23-.16,.48-.21,.76-.16,.28,.05,.5,.19,.66,.42,.16,.23,.21,.48,.16,.76-.28,1.39-.68,2.75-1.2,4.07-.04,.09-.06,.2-.06,.32v11.34c0,.29-.1,.54-.31,.74-.21,.2-.46,.3-.75,.3s-.54-.1-.74-.3c-.2-.2-.3-.45-.3-.74v-7.69s0-.04-.03-.04-.04,0-.05,.02c-.03,.05-.23,.37-.62,.94-.15,.21-.34,.3-.58,.26-.24-.04-.41-.17-.5-.4l-.06-.18c-.25-.68-.17-1.35,.26-1.99,1.35-2.03,2.33-4.38,2.93-7.02Zm14.79,8.67c.27,0,.49,.09,.66,.26,.17,.17,.26,.4,.26,.66s-.09,.49-.26,.66-.39,.26-.66,.26h-12.3c-.25,0-.47-.09-.65-.26s-.27-.39-.27-.66,.09-.49,.27-.66c.18-.17,.4-.26,.65-.26h1.81c.12,0,.18-.06,.18-.18V5.84c0-.12-.06-.18-.18-.18h-1.12c-.25,0-.47-.08-.64-.25-.17-.17-.26-.38-.26-.63s.09-.47,.26-.65,.39-.27,.64-.27h1.12c.12,0,.18-.05,.18-.16V1.97c0-.29,.1-.54,.3-.75,.2-.21,.45-.31,.74-.31s.54,.1,.75,.31c.21,.21,.31,.46,.31,.75v1.73c0,.11,.06,.16,.18,.16h3.75c.12,0,.18-.05,.18-.16V1.99c0-.31,.11-.56,.32-.77s.47-.31,.76-.31,.55,.1,.76,.31,.32,.46,.32,.77v1.71c0,.11,.05,.16,.16,.16h1.12c.25,0,.47,.09,.65,.27s.27,.4,.27,.65-.09,.46-.27,.63c-.18,.17-.4,.25-.65,.25h-1.12c-.11,0-.16,.06-.16,.18v4.38c0,.12,.05,.18,.16,.18h1.77Zm-11.38,7.97c-.23,.16-.48,.22-.76,.17s-.51-.18-.7-.41c-.17-.2-.24-.43-.2-.7,.04-.27,.17-.48,.38-.62,1.3-.94,2.46-1.97,3.47-3.09,.19-.2,.41-.31,.68-.33s.51,.06,.72,.23c.21,.19,.33,.42,.36,.68,.03,.27-.05,.51-.22,.72-1.08,1.26-2.33,2.38-3.73,3.35Zm7.29-8.15V5.84c0-.12-.06-.18-.18-.18h-3.75c-.12,0-.18,.06-.18,.18v4.38c0,.12,.06,.18,.18,.18h3.75c.12,0,.18-.06,.18-.18Zm2.77,8.03c-.98-1.11-2.09-2.18-3.33-3.21-.21-.17-.33-.4-.34-.67s.07-.5,.26-.69c.2-.21,.45-.33,.73-.34,.29-.01,.54,.07,.77,.26,1.11,.92,2.23,2.01,3.37,3.25,.19,.21,.27,.46,.26,.74-.01,.28-.12,.52-.32,.72-.2,.19-.44,.27-.71,.26-.27-.01-.5-.12-.69-.32Z"/><path d="M104.47,17.16c-1.03,0-1.97-.6-2.83-1.81-.86-1.2-1.28-2.68-1.28-4.42,0-2.56,.87-4.63,2.61-6.23,1.74-1.6,4.01-2.4,6.82-2.4,2.26,0,4.13,.71,5.61,2.13,1.48,1.42,2.22,3.22,2.22,5.4s-.49,3.8-1.46,5.14c-.97,1.34-2.3,2.19-3.98,2.55-.27,.05-.52,0-.74-.16s-.37-.38-.44-.66c-.05-.25,0-.49,.14-.7,.15-.21,.35-.35,.6-.42,1.24-.33,2.2-.99,2.87-1.97,.67-.98,1-2.23,1-3.77s-.48-2.78-1.43-3.81c-.96-1.03-2.18-1.62-3.68-1.77-.11-.03-.17,.03-.2,.16-.31,2.53-.67,4.66-1.09,6.39-.42,1.73-.89,3.04-1.42,3.93-.52,.89-1.04,1.52-1.57,1.88-.52,.36-1.1,.54-1.75,.54Zm3.59-12.8c-1.75,.31-3.14,1.05-4.16,2.23-1.02,1.18-1.54,2.63-1.54,4.36,0,1.14,.24,2.12,.71,2.96,.47,.84,.94,1.25,1.39,1.25,.21,0,.43-.09,.66-.27,.23-.18,.48-.52,.76-1.01,.28-.5,.55-1.12,.81-1.89,.26-.76,.53-1.79,.79-3.08,.27-1.29,.5-2.76,.7-4.41,0-.04-.01-.08-.04-.11s-.06-.04-.1-.03Z"/><path d="M120.09,11.56c-.21-.04-.38-.15-.51-.33-.13-.18-.17-.38-.13-.61,.33-1.79,.59-3.57,.76-5.34,.03-.23,.13-.41,.3-.55s.37-.2,.58-.19c.21,.01,.39,.11,.54,.28s.21,.38,.18,.6c-.2,2.04-.46,3.86-.76,5.48-.04,.21-.15,.39-.34,.52-.19,.13-.4,.18-.62,.14Zm3.86,7c-.21,.2-.46,.3-.75,.3s-.54-.1-.74-.3c-.2-.2-.3-.45-.3-.74V1.85c0-.29,.1-.54,.3-.74,.2-.2,.45-.3,.74-.3s.54,.1,.75,.3c.21,.2,.31,.45,.31,.74V3.99c0,.11,.05,.15,.14,.12,.28-.07,.55-.02,.79,.13,.25,.15,.4,.37,.45,.63,.19,.83,.32,1.45,.4,1.87,.03,.09,.09,.14,.2,.14h4.36c.11,0,.16-.06,.16-.18v-.56c0-.11-.05-.16-.16-.16h-3.41c-.21,0-.4-.08-.55-.23s-.23-.34-.23-.55,.08-.4,.23-.55c.15-.15,.34-.23,.55-.23h3.41c.11,0,.16-.05,.16-.16v-.56c0-.12-.05-.18-.16-.18h-4.07c-.23,0-.42-.08-.58-.24-.16-.16-.24-.36-.24-.58s.08-.43,.24-.59c.16-.17,.35-.25,.58-.25h4.07c.11,0,.16-.05,.16-.16v-.08c0-.29,.11-.55,.33-.77s.48-.33,.79-.33,.55,.11,.76,.32c.21,.21,.32,.47,.32,.78v.08c0,.11,.06,.16,.18,.16h3.87c.23,0,.42,.08,.58,.25,.16,.17,.24,.36,.24,.59s-.08,.42-.24,.58-.35,.24-.58,.24h-3.87c-.12,0-.18,.06-.18,.18v.56c0,.11,.06,.16,.18,.16h3.31c.21,0,.4,.08,.55,.23,.15,.15,.23,.34,.23,.55s-.08,.4-.23,.55-.34,.23-.55,.23h-3.31c-.12,0-.18,.05-.18,.16v.56c0,.12,.06,.18,.18,.18h4.29c.23,0,.42,.08,.57,.23s.23,.34,.23,.57-.08,.42-.23,.57c-.15,.15-.34,.23-.57,.23h-11.14s-.1-.01-.18-.04c-.13-.03-.23-.01-.3,.04-.11,.05-.19,.09-.24,.1-.21,.04-.41,0-.59-.14-.18-.13-.29-.31-.33-.52-.16-.86-.29-1.51-.38-1.95l-.02-.02v11.86c0,.29-.1,.54-.31,.74Zm10.39-1.67c.4,0,.64-.02,.7-.06,.07-.04,.1-.2,.1-.48v-.28c0-.12-.05-.18-.16-.18h-6.54c-.11,0-.16,.06-.16,.18v1.61c0,.31-.11,.57-.32,.77s-.47,.31-.76,.31-.55-.1-.76-.31-.32-.46-.32-.77v-7.3c0-.31,.11-.58,.34-.8s.5-.34,.8-.34h8.91c.31,0,.58,.11,.8,.34s.34,.5,.34,.8v5.98c0,1.07-.14,1.73-.42,1.98-.28,.25-1.03,.37-2.25,.37-.51,0-1.02-.01-1.55-.04-.25-.01-.47-.11-.65-.3-.18-.19-.28-.41-.29-.66-.01-.24,.07-.44,.25-.61,.18-.17,.39-.24,.63-.23,.4,.03,.84,.04,1.3,.04Zm-6.06-5.84v.66c0,.12,.05,.18,.16,.18h6.54c.11,0,.16-.06,.16-.18v-.66c0-.12-.05-.18-.16-.18h-6.54c-.11,0-.16,.06-.16,.18Zm6.7,3.35c.11,0,.16-.06,.16-.18v-.66c0-.12-.05-.18-.16-.18h-6.54c-.11,0-.16,.06-.16,.18v.66c0,.12,.05,.18,.16,.18h6.54Z"/><path d="M140.92,7.19c-.24,0-.45-.09-.62-.26s-.26-.38-.26-.62,.09-.45,.26-.62,.38-.26,.62-.26h2.41c.12,0,.18-.05,.18-.16v-1.53c0-.11-.06-.16-.18-.16h-1.91c-.23,0-.42-.08-.58-.25-.16-.17-.24-.36-.24-.59s.08-.42,.24-.58c.16-.16,.35-.24,.58-.24h1.91c.12,0,.18-.05,.18-.16v-.18c0-.29,.1-.54,.3-.75,.2-.21,.45-.31,.74-.31s.54,.1,.75,.31c.21,.21,.31,.46,.31,.75v.18c0,.11,.06,.16,.18,.16h1.85c.23,0,.42,.08,.58,.24,.16,.16,.24,.36,.24,.58s-.08,.43-.24,.59-.35,.25-.58,.25h-1.85c-.12,0-.18,.05-.18,.16v1.53c0,.11,.06,.16,.18,.16h2.51c.24,0,.45,.09,.62,.26,.03,.03,.05,.03,.07,.02,.02-.01,.03-.03,.03-.06V2.41c0-.31,.11-.58,.34-.8,.23-.23,.5-.34,.8-.34h6.8c.31,0,.57,.11,.78,.34,.21,.23,.31,.49,.3,.8-.08,1.15-.18,1.98-.29,2.48-.11,.5-.26,.82-.43,.95-.17,.13-.47,.2-.88,.2-.16,0-1.11-.03-2.85-.08-.23-.01-.42-.1-.58-.27-.16-.17-.25-.36-.26-.59-.01-.21,.06-.4,.23-.56,.17-.16,.36-.23,.59-.22,.86,.04,1.51,.06,1.97,.06,.2,0,.32-.06,.37-.17,.05-.11,.1-.46,.15-1.05,0-.12-.05-.18-.16-.18h-4.7c-.12,0-.18,.06-.18,.18v3.57c0,.11,.06,.16,.18,.16h5.94c.24,0,.44,.09,.61,.26,.17,.17,.25,.38,.25,.62,0,.32-.14,.57-.42,.74-.07,.05-.07,.11,0,.18,.24,.25,.33,.55,.28,.88-.33,1.71-.94,3.35-1.83,4.9-.04,.09-.03,.18,.02,.26,.48,.57,1.04,1.12,1.69,1.62,.23,.19,.38,.42,.47,.7,.09,.28,.08,.55-.03,.82-.11,.24-.28,.4-.52,.48-.24,.08-.47,.05-.68-.1-.71-.51-1.39-1.12-2.05-1.85-.09-.09-.17-.1-.22-.02-.48,.6-1.02,1.17-1.63,1.71-.2,.17-.43,.24-.69,.19s-.46-.18-.61-.41c-.15-.25-.19-.53-.14-.81,.05-.29,.19-.53,.42-.71,.47-.41,.94-.92,1.42-1.51,.08-.11,.09-.2,.02-.28-.75-1.14-1.34-2.35-1.77-3.65-.09-.25-.08-.51,.03-.76,.11-.25,.29-.45,.53-.58,.21-.12,.43-.13,.65-.04s.37,.25,.45,.48c.32,.95,.74,1.86,1.24,2.73,.05,.08,.11,.08,.16,0,.58-1.14,.98-2.33,1.2-3.57,.01-.13,.07-.27,.16-.4,.05-.08,.04-.12-.04-.12h-4.94c-.12,0-.18,.05-.18,.16v8.97c0,.28-.1,.52-.29,.71-.19,.19-.43,.29-.71,.29s-.52-.1-.71-.29-.29-.43-.29-.71v-5.66s0-.05-.03-.06c-.02-.01-.04,0-.07,.02-.17,.17-.38,.26-.62,.26h-2.51c-.12,0-.18,.06-.18,.18v1.71c0,.12,.06,.18,.18,.18h1.95c.23,0,.42,.08,.58,.24,.16,.16,.24,.35,.24,.58s-.08,.42-.24,.58-.36,.24-.58,.24h-1.95c-.12,0-.18,.06-.18,.18v1.69c0,.29-.1,.54-.31,.74-.21,.2-.46,.3-.75,.3s-.54-.1-.74-.3c-.2-.2-.3-.45-.3-.74v-1.69c0-.12-.06-.18-.18-.18h-2.05c-.23,0-.42-.08-.58-.24-.16-.16-.24-.35-.24-.58s.08-.42,.24-.58c.16-.16,.35-.24,.58-.24h2.05c.12,0,.18-.06,.18-.18v-1.71c0-.12-.06-.18-.18-.18h-2.31c-.24,0-.45-.09-.62-.26s-.26-.38-.26-.62,.09-.44,.26-.61c.17-.17,.38-.25,.62-.25h.9c.12,0,.17-.07,.14-.2-.2-.99-.4-1.92-.6-2.79-.01-.07-.02-.16-.02-.28,0-.09-.05-.14-.14-.14h-.38Zm5.1,0h-2.65c-.11,0-.15,.05-.12,.16,.2,.88,.4,1.87,.6,2.95,0,.01,0,.03,.01,.05,0,.02,0,.04,0,.05,0,.13,.05,.2,.16,.2h1.12c.11,0,.17-.06,.2-.18v-.02c.32-1.03,.59-2.05,.8-3.07,.03-.09-.02-.14-.14-.14Zm2.91-.28c-.19,.19-.39,.28-.62,.28h-.1c-.11,0-.16,.05-.16,.14,0,.07,0,.12-.02,.16-.23,1.08-.49,2.07-.78,2.95-.03,.11,.01,.16,.12,.16h.94c.24,0,.45,.09,.62,.26,.07,.07,.1,.05,.1-.06v-3.83s0-.05-.03-.06c-.02-.01-.04-.01-.07,0Z"/><path d="M160.99,12.24c-.25,0-.47-.09-.65-.26s-.27-.39-.27-.66,.09-.49,.27-.66c.18-.17,.4-.26,.65-.26h3.07c.11,0,.16-.06,.16-.18V5.84c0-.12-.05-.18-.16-.18h-2.19c-.25,0-.47-.08-.64-.25-.17-.17-.26-.38-.26-.63s.09-.47,.26-.65,.39-.27,.64-.27h2.19c.11,0,.16-.05,.16-.16V1.99c0-.31,.11-.56,.32-.77,.21-.21,.47-.31,.76-.31s.55,.1,.76,.31c.21,.21,.32,.46,.32,.77v1.71c0,.11,.06,.16,.18,.16h5.28c.11,0,.16-.05,.16-.16V1.99c0-.31,.11-.56,.32-.77s.47-.31,.76-.31,.55,.1,.76,.31,.32,.46,.32,.77v1.71c0,.11,.05,.16,.16,.16h2.19c.25,0,.47,.09,.64,.27s.26,.4,.26,.65-.09,.46-.26,.63c-.17,.17-.39,.25-.64,.25h-2.19c-.11,0-.16,.06-.16,.18v4.38c0,.12,.05,.18,.16,.18h3.07c.25,0,.47,.09,.65,.26,.18,.17,.27,.4,.27,.66s-.09,.49-.27,.66-.4,.26-.65,.26h-16.42Zm4.88,1.35c.2-.19,.44-.28,.71-.29,.27,0,.51,.08,.71,.25,.2,.19,.3,.42,.31,.69s-.08,.5-.27,.69c-1.34,1.34-2.86,2.5-4.58,3.49-.25,.15-.52,.19-.8,.13-.28-.06-.52-.2-.7-.43-.16-.21-.22-.45-.17-.7,.05-.25,.18-.45,.41-.58,1.71-1.02,3.17-2.1,4.38-3.25Zm.52-7.75v4.38c0,.12,.06,.18,.18,.18h5.28c.11,0,.16-.06,.16-.18V5.84c0-.12-.05-.18-.16-.18h-5.28c-.12,0-.18,.06-.18,.18Zm4.8,7.79c.2-.21,.44-.34,.73-.37,.29-.03,.55,.03,.79,.19,1.54,1,2.98,2.13,4.33,3.39,.21,.19,.32,.42,.32,.7s-.1,.52-.3,.72-.44,.3-.72,.3-.52-.09-.72-.28c-1.22-1.14-2.65-2.27-4.3-3.39-.21-.15-.33-.35-.36-.6-.03-.25,.05-.47,.22-.66Z"/><path d="M181.58,11.42c-.23,.16-.47,.2-.72,.13-.25-.07-.44-.24-.56-.49-.13-.27-.16-.54-.08-.83,.08-.29,.24-.52,.48-.71,2.11-1.55,3.71-3.35,4.8-5.4,.03-.03,.03-.06,0-.09-.02-.03-.05-.05-.09-.05h-4.08c-.24,0-.45-.09-.62-.26s-.26-.38-.26-.62,.09-.45,.26-.62,.38-.26,.62-.26h4.86c.11,0,.18-.05,.22-.16l.24-.66c.11-.31,.29-.55,.56-.73,.27-.18,.56-.26,.88-.25,.29,.03,.52,.16,.68,.39,.16,.23,.19,.49,.1,.77-.01,.05-.04,.13-.08,.24-.04,.11-.07,.19-.08,.24-.03,.11,.01,.16,.12,.16h8.59c.24,0,.45,.09,.62,.26s.26,.38,.26,.62-.09,.45-.26,.62-.38,.26-.62,.26h-9.33c-.12,0-.2,.05-.24,.16-.23,.46-.52,.98-.88,1.58-.03,.03-.03,.06-.01,.1,.02,.04,.05,.06,.09,.06h8.77c.31,0,.58,.11,.8,.33s.34,.49,.34,.79V15.86c0,1.23-.15,2-.45,2.31-.3,.31-1.07,.46-2.32,.46-.12,0-.27,0-.45,0-.18,0-.43-.02-.74-.03-.31-.01-.61-.03-.89-.04-.25-.01-.46-.1-.63-.27-.17-.17-.26-.38-.27-.63-.01-.24,.07-.45,.24-.61,.17-.17,.38-.24,.62-.23,.84,.04,1.44,.06,1.79,.06,.46,0,.72-.02,.79-.07s.11-.21,.11-.49v-1.36c0-.12-.06-.18-.18-.18h-8.49c-.11,0-.16,.06-.16,.18v2.63c0,.29-.11,.55-.33,.77s-.49,.33-.79,.33-.55-.11-.76-.32-.32-.48-.32-.78v-7.73s-.02-.05-.06-.07c-.04-.02-.07-.02-.08,0-.72,.66-1.39,1.21-2.01,1.65Zm4.36-3.67v1.61c0,.12,.05,.18,.16,.18h8.49c.12,0,.18-.06,.18-.18v-1.61c0-.11-.06-.16-.18-.16h-8.49c-.11,0-.16,.05-.16,.16Zm0,3.57v1.64c0,.12,.05,.18,.16,.18h8.49c.12,0,.18-.06,.18-.18v-1.64c0-.12-.06-.18-.18-.18h-8.49c-.11,0-.16,.06-.16,.18Z"/><path d="M202.6,4.46c-.27,0-.49-.09-.66-.26-.17-.17-.26-.39-.26-.66s.09-.49,.26-.66c.17-.17,.39-.26,.66-.26h14.19c.27,0,.49,.09,.67,.27,.18,.18,.27,.4,.27,.65,0,.67-.1,1.27-.3,1.81-.86,2.17-2.29,3.91-4.32,5.22-.24,.16-.5,.21-.78,.14-.28-.07-.5-.22-.66-.46-.15-.23-.19-.48-.13-.74,.06-.27,.2-.47,.43-.62,1.73-1.14,2.87-2.55,3.43-4.24,.03-.12,0-.18-.1-.18h-12.71Zm4.62,2.83c.01-.29,.12-.54,.33-.75s.46-.31,.75-.31,.54,.1,.74,.31c.2,.21,.29,.46,.28,.75-.07,2.81-.45,4.98-1.15,6.5-.7,1.53-1.87,2.73-3.5,3.61-.25,.13-.52,.16-.79,.08-.27-.08-.49-.25-.63-.5-.13-.23-.16-.47-.08-.73,.08-.26,.24-.46,.48-.59,1.24-.71,2.14-1.69,2.68-2.95s.84-3.06,.89-5.42Z"/><path d="M234.45,.82c.55-.55,1.21-.82,1.99-.82s1.44,.27,1.99,.82,.82,1.21,.82,1.99-.27,1.44-.82,1.99-1.21,.82-1.99,.82c-.09,0-.14,.05-.14,.14,.01,.15,.01,.3,0,.46-.39,3.44-1.56,6.09-3.51,7.97-1.95,1.87-4.75,3.06-8.39,3.55-.28,.04-.54-.02-.76-.19-.23-.17-.37-.39-.42-.67-.05-.25,0-.49,.17-.71,.17-.22,.38-.35,.65-.39,3.3-.47,5.77-1.54,7.39-3.21,1.62-1.67,2.54-4.13,2.75-7.39,0-.11-.05-.16-.16-.16h-11.72c-.28,0-.52-.1-.71-.29s-.29-.43-.29-.71,.1-.52,.29-.71,.43-.29,.71-.29h11.18c.11,0,.16-.05,.16-.14v-.06c0-.78,.27-1.44,.82-1.99Zm1.06,2.91c.25,.25,.56,.38,.92,.38s.67-.13,.92-.38c.25-.25,.38-.56,.38-.92s-.13-.67-.38-.92-.56-.38-.92-.38-.67,.13-.92,.38c-.25,.25-.38,.56-.38,.92s.13,.67,.38,.92Z"/><path d="M244.31,10.94c-.29,0-.55-.11-.76-.32-.21-.21-.32-.47-.32-.78V3.11c0-.31,.11-.57,.32-.78,.21-.21,.47-.32,.76-.32s.57,.11,.79,.33,.33,.48,.33,.77v6.72c0,.29-.11,.55-.33,.77s-.49,.33-.79,.33Zm9.52-8.6c.22-.22,.48-.33,.79-.33s.57,.11,.79,.33,.33,.48,.33,.79V7.33c0,3.24-.72,5.7-2.17,7.4-1.45,1.69-3.76,2.79-6.95,3.3-.28,.04-.54-.02-.77-.19s-.38-.39-.45-.67c-.05-.27,0-.51,.15-.73,.15-.22,.36-.36,.63-.41,2.72-.48,4.61-1.36,5.69-2.65,1.08-1.29,1.62-3.28,1.62-5.98V3.13c0-.31,.11-.57,.33-.79Z"/></g><path id="d" class="m" d="M27.92,37.91l5.88,18.95,12.63-18.95h10.38l-6.97,39.55h-9.94l3.95-22.3-8.46,13.29h-7.19l-3.74-13.29-3.95,22.3H10.62l6.98-39.55h10.32Z"/><path id="e" class="m" d="M79.38,77.45l.33-8.62h-9.17l-2.69,8.62h-10.49l14.12-39.55h18.13l.22,39.55h-10.44Zm-2.25-29.93l-4.34,13.95h7.19l.6-13.95h-3.46Z"/><path id="f" class="m" d="M116.89,65.42h-6.54l-2.14,12.03h-9.89l6.98-39.55h16.75c4.14,0,7.09,.95,8.84,2.86,1.32,1.56,2,3.56,1.92,5.6,0,.81-.08,1.62-.22,2.42l-1.1,6.21c-.55,3.04-2.29,5.74-4.83,7.5-2.67,1.96-5.93,2.94-9.78,2.94m1.7-18.95h-4.94l-1.81,10.38h4.89c3,0,4.74-1.34,5.22-4.01l.38-2.25c.08-.43,.12-.88,.11-1.32-.06-.68-.35-1.32-.82-1.81-.55-.66-1.56-.99-3.02-.99"/><path id="g" class="m" d="M155.45,77.45l.33-8.62h-9.17l-2.69,8.62h-10.49l14.12-39.55h18.13l.22,39.55h-10.44Zm-2.25-29.93l-4.34,13.95h7.19l.6-13.95h-3.46Z"/><path id="h" class="m" d="M212.73,37.91l-12.58,19.94,5.6,19.61h-10.44l-4.12-14.5h-4.34l-2.58,14.5h-9.89l6.98-39.55h9.89l-2.91,16.48h3.52l10.44-16.48h10.43Z"/><path id="i" class="m" d="M234.26,37.52c8.82,0,13.24,3.61,13.24,10.82-.01,1.31-.14,2.61-.38,3.9l-1.92,10.99c-.88,5.09-2.78,8.86-5.71,11.31-2.93,2.45-7.05,3.68-12.36,3.68-5.31,0-9.01-1.23-11.09-3.68-1.43-1.68-2.14-4.01-2.14-6.98,.01-1.46,.16-2.91,.44-4.34l1.92-10.99c1.72-9.81,7.72-14.72,18.01-14.72m-5.66,32.19c1.83,0,3.29-.48,4.39-1.43,1.1-.95,1.87-2.71,2.31-5.27l1.87-10.55c.1-.65,.16-1.32,.16-1.98,0-2.97-1.5-4.45-4.5-4.45-3.77,.07-6.02,2.22-6.76,6.43l-1.87,10.55c-.15,.94-.22,1.9-.22,2.86,0,2.56,1.54,3.85,4.61,3.84"/></g></g></g></svg>