<svg xmlns="http://www.w3.org/2000/svg" xmlns:xlink="http://www.w3.org/1999/xlink" width="124.633" height="25" viewBox="0 0 124.633 25">
  <defs>
    <clipPath id="clip-path">
      <rect width="124.633" height="25" fill="none"/>
    </clipPath>
    <clipPath id="clip-path-2">
      <rect id="長方形_39" data-name="長方形 39" width="25" height="25" transform="translate(0 0)" fill="none"/>
    </clipPath>
  </defs>
  <g id="グループ_102" data-name="グループ 102" transform="translate(-33 -264)">
    <g id="リピートグリッド_1" data-name="リピートグリッド 1" transform="translate(33 264)" clip-path="url(#clip-path)">
      <g id="グループ_101" data-name="グループ 101" transform="translate(-16 -264)">
        <path id="パス_400" data-name="パス 400" d="M7.906.094,8.2-.867a5.58,5.58,0,0,0,2,.359,3.54,3.54,0,0,0,2.3-.68,2.363,2.363,0,0,0,.836-1.945,2.34,2.34,0,0,0-1.125-2.1A5.8,5.8,0,0,0,9.07-5.953a11.288,11.288,0,0,0-2.6.3v4.7q0,1.5-2.273,1.5A3.626,3.626,0,0,1,1.9-.23,2.371,2.371,0,0,1,.914-2.18a3.319,3.319,0,0,1,1.23-2.437,8.262,8.262,0,0,1,3.074-1.75V-9.055H1.328v-1.023H5.188v-2.531H6.469V-10.2h4.078v1.023H6.469V-6.7a12.246,12.246,0,0,1,2.578-.273,7.272,7.272,0,0,1,3.938,1A3.121,3.121,0,0,1,14.578-3.2,3.547,3.547,0,0,1,13.465-.414a4.352,4.352,0,0,1-3.02,1A5.53,5.53,0,0,1,7.906.094ZM5.25-5.281A7.432,7.432,0,0,0,2.992-3.93a2.311,2.311,0,0,0-.914,1.688A1.412,1.412,0,0,0,2.746-.98a2.675,2.675,0,0,0,1.488.434q1.016,0,1.016-.719ZM15.492-8.672l-1.008.719a18.021,18.021,0,0,0-3.828-3.484l.82-.727a18.68,18.68,0,0,1,2.152,1.645A16.442,16.442,0,0,1,15.492-8.672ZM23.266.945h-2.5L20.625-.18h2.148a.83.83,0,0,0,.547-.187.577.577,0,0,0,.227-.461V-5.664H16.625v-.992h6.922v-2.3h1.109a11.87,11.87,0,0,0,3.227-2.461H18.141V-12.4H29.273l.6.617a15.536,15.536,0,0,1-2.312,2.027A19.153,19.153,0,0,1,24.8-8.031v1.375h6.578v.992H24.8V-.406a1.218,1.218,0,0,1-.449.969A1.613,1.613,0,0,1,23.266.945ZM45.68,0a17.247,17.247,0,0,1-4.43.492q-6.867,0-6.867-3.2A2.918,2.918,0,0,1,35.8-5.285a6.448,6.448,0,0,1,3.586-.926,20.238,20.238,0,0,1,3.633.336,27.179,27.179,0,0,1-1.766-3.039H33.633V-9.937h7.141a16.816,16.816,0,0,1-.789-2.508l1.219-.18a16.444,16.444,0,0,0,.828,2.688h5.156v1.023H42.516a10.541,10.541,0,0,0,2.844,3.781l-.57.922a11.381,11.381,0,0,0-5.328-1.008,5.253,5.253,0,0,0-2.719.648,2.018,2.018,0,0,0-1.094,1.82q0,2.188,5.648,2.188a17.3,17.3,0,0,0,4.148-.492ZM62.469-1.187,61.8-.148a18.666,18.666,0,0,0-4.7-2.445v1.156q0,2.016-3.719,2.016a4.891,4.891,0,0,1-2.547-.637A1.951,1.951,0,0,1,49.758-1.8a2.09,2.09,0,0,1,1.016-1.824A4.313,4.313,0,0,1,53.219-4.3a10.616,10.616,0,0,1,2.625.289v-2.3H49.922V-7.344h5.922V-9.727H49.508V-10.75h6.336v-1.68h1.211v1.68h5.8v1.023h-5.8v2.383H62.18V-6.32H57.055v2.578A28.956,28.956,0,0,1,62.469-1.187Zm-6.594-.656v-1.1a7.856,7.856,0,0,0-2.648-.367,3.3,3.3,0,0,0-1.586.391,1.164,1.164,0,0,0-.727,1.031,1.119,1.119,0,0,0,.73,1.035A4.176,4.176,0,0,0,53.477-.5,4.873,4.873,0,0,0,55-.672a1.631,1.631,0,0,0,.672-.4A1.174,1.174,0,0,0,55.875-1.844ZM79.461-7.609H69.492v-.9H73.7V-9.648H70.227V-10.5H73.7v-1.031H69.688v-.859H73.7v-.945h1.219v.945h4.25v.859h-4.25V-10.5h3.742v.852H74.922v1.141h4.539ZM67.727.977H66.6V-13.242h1.125ZM69.672-9.359l-.836.25-.586-2.062.836-.2Zm-3.922-.883q-.031.992-.211,2.418a13.368,13.368,0,0,1-.391,2.105l-.977-.2a20.332,20.332,0,0,0,.57-4.406ZM77.273-1.781H71.445V.992H70.289V-6.586h8.18v6.4a.89.89,0,0,1-.395.734,1.362,1.362,0,0,1-.832.3h-1.7L75.414-.172h1.258A.647.647,0,0,0,77.09-.32a.417.417,0,0,0,.184-.32Zm0-2.844V-5.766H71.445v1.141ZM71.445-2.6h5.828V-3.8H71.445ZM83.578.992V-2.148H80.672v-.914h2.906V-4.891H80.656v-.891h1.711L81.641-8.4H80.75v-.914h2.859v-1.648h-2.4v-.875h2.4V-13.18h1.2v1.344H87.2v.875H84.813v1.648h2.68V-8.4H86.8l-.844,2.617h1.578v.891H84.8v1.828h2.469v.914H84.8V.992Zm-.156-6.773H84.93L85.664-8.4H82.7ZM88.273.938V-12.773h6.25v3.2a.953.953,0,0,1-.406.777,1.5,1.5,0,0,1-.945.316H91.391l-.164-.961h1.422q.7,0,.7-.57v-1.867H89.469v4.656h5.578A9.018,9.018,0,0,1,93.3-1.937,12.369,12.369,0,0,0,95.633.039l-.75.852a13.071,13.071,0,0,1-2.242-2.008A8.884,8.884,0,0,1,90.3.813L89.773.078a8.393,8.393,0,0,0,2.219-1.992l-.031-.039a8.838,8.838,0,0,1-1.1-1.855,8.863,8.863,0,0,1-.7-2.512h-.7V.938Zm4.336-3.711A7.21,7.21,0,0,0,93.836-6.32H91.164A7.617,7.617,0,0,0,92.609-2.773Z" transform="translate(45 282.336)" fill="#fff"/>
        <g id="グループ_34" data-name="グループ 34" transform="translate(16 264)">
          <g id="グループ_33" data-name="グループ 33" transform="translate(0 0.001)" clip-path="url(#clip-path-2)">
            <path id="パス_323" data-name="パス 323" d="M12.292,24.584A12.3,12.3,0,0,1,7.509.967a12.294,12.294,0,0,1,9.566,22.65,12.2,12.2,0,0,1-4.783.967m0-23.321A11.029,11.029,0,1,0,23.321,12.292,11.042,11.042,0,0,0,12.292,1.263m0,17.766h0a7.6,7.6,0,0,1-3.75-.963,6.427,6.427,0,0,1-2.7-2.93.631.631,0,0,1,1.149-.524,5.66,5.66,0,0,0,5.3,3.154,5.66,5.66,0,0,0,5.3-3.154.631.631,0,1,1,1.149.524,6.427,6.427,0,0,1-2.7,2.93,7.609,7.609,0,0,1-3.75.963" transform="translate(0 0)" fill="#fff"/>
            <path id="パス_324" data-name="パス 324" d="M18.421,20.827a1.265,1.265,0,1,0,1.265,1.265,1.266,1.266,0,0,0-1.265-1.265m7.761,0a1.265,1.265,0,1,0,1.265,1.265,1.266,1.266,0,0,0-1.265-1.265" transform="translate(-10.01 -12.152)" fill="#fff" fill-rule="evenodd"/>
          </g>
        </g>
      </g>
    </g>
  </g>
</svg>
