<svg xmlns="http://www.w3.org/2000/svg" xmlns:xlink="http://www.w3.org/1999/xlink" width="25" height="25" viewBox="0 0 25 25">
  <defs>
    <clipPath id="clip-path">
      <rect id="長方形_39" data-name="長方形 39" width="25" height="25" transform="translate(0 0)" fill="none"/>
    </clipPath>
  </defs>
  <g id="グループ_34" data-name="グループ 34" transform="translate(0 0)">
    <g id="グループ_33" data-name="グループ 33" transform="translate(0 0.001)" clip-path="url(#clip-path)">
      <path id="パス_323" data-name="パス 323" d="M12.292,24.584A12.3,12.3,0,0,1,7.509.967a12.294,12.294,0,0,1,9.566,22.65,12.2,12.2,0,0,1-4.783.967m0-23.321A11.029,11.029,0,1,0,23.321,12.292,11.042,11.042,0,0,0,12.292,1.263m0,17.766h0a7.6,7.6,0,0,1-3.75-.963,6.427,6.427,0,0,1-2.7-2.93.631.631,0,0,1,1.149-.524,5.66,5.66,0,0,0,5.3,3.154,5.66,5.66,0,0,0,5.3-3.154.631.631,0,1,1,1.149.524,6.427,6.427,0,0,1-2.7,2.93,7.609,7.609,0,0,1-3.75.963" transform="translate(0 0)" fill="#fff"/>
      <path id="パス_324" data-name="パス 324" d="M18.421,20.827a1.265,1.265,0,1,0,1.265,1.265,1.266,1.266,0,0,0-1.265-1.265m7.761,0a1.265,1.265,0,1,0,1.265,1.265,1.266,1.266,0,0,0-1.265-1.265" transform="translate(-10.01 -12.152)" fill="#fff" fill-rule="evenodd"/>
    </g>
  </g>
</svg>
