<svg xmlns="http://www.w3.org/2000/svg" width="32" height="32" viewBox="0 0 32 32">
  <g id="グループ_25" data-name="グループ 25" transform="translate(-1943 547)">
    <rect id="長方形_22" data-name="長方形 22" width="32" height="32" transform="translate(1943 -547)" fill="none"/>
    <path id="パス_3" data-name="パス 3" d="M20.8,13.193a1.05,1.05,0,0,1,0-1.386L22.146,10.3a1.05,1.05,0,0,0,.126-1.228l-2.1-3.633a1.05,1.05,0,0,0-1.123-.5l-1.974.4a1.05,1.05,0,0,1-1.207-.693l-.64-1.921a1.05,1.05,0,0,0-1-.714h-4.2a1.05,1.05,0,0,0-1.05.714L8.391,4.636a1.05,1.05,0,0,1-1.207.693l-2.026-.4a1.05,1.05,0,0,0-1.05.5l-2.1,3.633a1.05,1.05,0,0,0,.1,1.228l1.333,1.512a1.05,1.05,0,0,1,0,1.386L2.112,14.7a1.05,1.05,0,0,0-.1,1.228l2.1,3.633a1.05,1.05,0,0,0,1.123.5l1.974-.4a1.05,1.05,0,0,1,1.207.693l.64,1.921A1.05,1.05,0,0,0,10.1,23h4.2a1.05,1.05,0,0,0,1-.714l.64-1.921a1.05,1.05,0,0,1,1.207-.693l1.974.4a1.05,1.05,0,0,0,1.123-.5l2.1-3.633A1.05,1.05,0,0,0,22.22,14.7ZM19.238,14.6l.84.945-1.344,2.331-1.239-.252a3.15,3.15,0,0,0-3.622,2.1l-.4,1.176H10.785l-.378-1.2a3.15,3.15,0,0,0-3.622-2.1l-1.239.252-1.365-2.32.84-.945a3.15,3.15,0,0,0,0-4.2l-.84-.945,1.344-2.31,1.239.252a3.15,3.15,0,0,0,3.622-2.1l.4-1.186h2.688l.4,1.2a3.15,3.15,0,0,0,3.622,2.1l1.239-.252,1.344,2.331-.84.945a3.15,3.15,0,0,0,0,4.179ZM12.129,8.3a4.2,4.2,0,1,0,4.2,4.2A4.2,4.2,0,0,0,12.129,8.3Zm0,6.3a2.1,2.1,0,1,1,2.1-2.1A2.1,2.1,0,0,1,12.129,14.6Z" transform="translate(1946.337 -543.999)" fill="#333"/>
  </g>
</svg>
