<svg xmlns="http://www.w3.org/2000/svg" width="28" height="28" viewBox="0 0 28 28">
  <g id="グループ_50" data-name="グループ 50" transform="translate(-391 -251)">
    <rect id="長方形_51" data-name="長方形 51" width="28" height="28" transform="translate(391 251)" fill="none" opacity="0.42"/>
    <path id="パス_3" data-name="パス 3" d="M725.14,386.58a1.05,1.05,0,0,1,0-1.39l1.35-1.5a1.07,1.07,0,0,0,.13-1.23l-2.1-3.64a1.06,1.06,0,0,0-1.13-.5l-2,.4a1.05,1.05,0,0,1-1.21-.69l-.64-1.92a1,1,0,0,0-1-.71h-4.2a1,1,0,0,0-1,.71l-.59,1.91a1,1,0,0,1-1.2.69l-2-.4a1.06,1.06,0,0,0-1,.5l-2.1,3.64a1.07,1.07,0,0,0,.1,1.23l1.33,1.51a1,1,0,0,1,0,1.38l-1.32,1.52a1,1,0,0,0-.1,1.22l2.1,3.64a1,1,0,0,0,1.12.5l2-.4a1.05,1.05,0,0,1,1.21.69l.64,1.92a1,1,0,0,0,1,.73h4.2a1,1,0,0,0,1-.72l.64-1.92a1.05,1.05,0,0,1,1.21-.69l2,.4a1.06,1.06,0,0,0,1.13-.5l2.1-3.64a1,1,0,0,0-.13-1.23ZM723.58,388l.84.94-1.34,2.33-1.24-.25a3.14,3.14,0,0,0-3.62,2.1l-.4,1.18h-2.69l-.38-1.2a3.15,3.15,0,0,0-3.62-2.1l-1.24.25-1.37-2.32.84-.95a3.15,3.15,0,0,0,0-4.2l-.84-.94,1.35-2.31,1.24.25a3.15,3.15,0,0,0,3.62-2.1l.4-1.19h2.69l.4,1.2a3.14,3.14,0,0,0,3.62,2.1l1.24-.25,1.34,2.33-.84.95a3.17,3.17,0,0,0,0,4.18Zm-7.11-6.3a4.2,4.2,0,1,0,4.2,4.2h0a4.2,4.2,0,0,0-4.2-4.21Zm0,6.3a2.1,2.1,0,1,1,2.1-2.1,2.1,2.1,0,0,1-2.1,2.1Z" transform="translate(-311.298 -120.399)" fill="#333"/>
    <g id="楕円形_1" data-name="楕円形 1" transform="translate(365.41 254.27)">
      <circle id="楕円形_2" data-name="楕円形 2" cx="4.5" cy="4.5" r="4.5" transform="translate(35.59 6.73)" fill="#fff"/>
      <circle id="楕円形_3" data-name="楕円形 3" cx="3.5" cy="3.5" r="3.5" transform="translate(36.59 7.73)" fill="none" stroke="#58c1df" stroke-width="2"/>
    </g>
  </g>
</svg>
