<svg xmlns="http://www.w3.org/2000/svg" xmlns:xlink="http://www.w3.org/1999/xlink" width="195.675" height="37.014" viewBox="0 0 195.675 37.014">
  <defs>
    <clipPath id="clip-path">
      <rect id="長方形_36" data-name="長方形 36" width="32.5" height="33.152" fill="none"/>
    </clipPath>
    <clipPath id="clip-path-2">
      <rect id="長方形_37" data-name="長方形 37" width="31.5" height="37.014" fill="none"/>
    </clipPath>
  </defs>
  <g id="グループ_75" data-name="グループ 75" transform="translate(-26.833 547.862)">
    <path id="パス_396" data-name="パス 396" d="M9.018-19.44l2.889,9.315,6.21-9.315h5.1L19.791,0H14.9l1.944-10.962L12.69-4.428H9.153L7.317-10.962,5.373,0H.513L3.942-19.44Z" transform="translate(65.833 -515.868)" fill="#58c1df"/>
    <path id="パス_397" data-name="パス 397" d="M10.125,0l.162-4.239H5.778L4.455,0H-.7L6.237-19.44h8.91L15.255,0ZM9.018-14.715,6.885-7.857h3.537l.3-6.858Z" transform="translate(90.449 -515.868)" fill="#58c1df"/>
    <path id="パス_398" data-name="パス 398" d="M9.639-5.913H6.426L5.373,0H.513L3.942-19.44h8.235q3.051,0,4.347,1.4a4.03,4.03,0,0,1,.945,2.754,6.938,6.938,0,0,1-.108,1.188l-.54,3.051a5.717,5.717,0,0,1-2.376,3.686A7.907,7.907,0,0,1,9.639-5.913Zm.837-9.315H8.046l-.891,5.1h2.4A2.274,2.274,0,0,0,12.123-12.1l.189-1.107a3.106,3.106,0,0,0,.054-.648,1.45,1.45,0,0,0-.405-.891A1.86,1.86,0,0,0,10.476-15.228Z" transform="translate(109.433 -515.868)" fill="#58c1df"/>
    <path id="パス_399" data-name="パス 399" d="M10.125,0l.162-4.239H5.778L4.455,0H-.7L6.237-19.44h8.91L15.255,0ZM9.018-14.715,6.885-7.857h3.537l.3-6.858Z" transform="translate(128.26 -515.868)" fill="#58c1df"/>
    <path id="パス_400" data-name="パス 400" d="M19.359-19.44l-6.183,9.8L15.93,0H10.8L8.775-7.128H6.642L5.373,0H.513L3.942-19.44H8.8l-1.431,8.1H9.1l5.13-8.1Z" transform="translate(147.245 -515.868)" fill="#58c1df"/>
    <path id="パス_401" data-name="パス 401" d="M11.016-19.629q6.507,0,6.507,5.319a10.616,10.616,0,0,1-.189,1.917l-.945,5.4a8.94,8.94,0,0,1-2.808,5.562A9.2,9.2,0,0,1,7.506.378q-3.915,0-5.454-1.809A5.139,5.139,0,0,1,1-4.86a11.73,11.73,0,0,1,.216-2.133l.945-5.4Q3.429-19.629,11.016-19.629ZM8.235-3.807a3.183,3.183,0,0,0,2.16-.7A4.356,4.356,0,0,0,11.529-7.1l.918-5.184a6.616,6.616,0,0,0,.081-.972,1.945,1.945,0,0,0-2.214-2.187q-2.781.054-3.321,3.159L6.075-7.1a8.878,8.878,0,0,0-.108,1.4Q5.967-3.807,8.235-3.807Z" transform="translate(166.383 -515.868)" fill="#58c1df"/>
    <g id="グループ_30" data-name="グループ 30" transform="translate(26.833 -544)">
      <g id="グループ_29" data-name="グループ 29" transform="translate(0 0)" clip-path="url(#clip-path)">
        <path id="パス_291" data-name="パス 291" d="M19.046,18.848a1.891,1.891,0,0,0-.214-.352c.01.013-3.367,1.232-3.7,1.314a19.945,19.945,0,0,1-4.379.572,6.374,6.374,0,0,1-3.4-.488c-1.062-.64-2.066-1.7-3.082-2.444A5.6,5.6,0,0,1,1.937,14.8,34.036,34.036,0,0,1,13.79,7.185a9.931,9.931,0,0,1,5.357-.806,4.206,4.206,0,0,1,3.538,3.649,3.471,3.471,0,0,1,3.942-1.095,5,5,0,0,1,2.877,3.13,9.163,9.163,0,0,1,.244,4.347A7.136,7.136,0,0,1,28.3,20.049a3.447,3.447,0,0,1-3.549,1.186c-.459-.153-.868-.427-1.316-.61-1.339-.546-3.125.034-4.515.2a2.073,2.073,0,0,0,.127-1.976" transform="translate(-1.082 -3.5)" fill="#58c1df"/>
        <path id="パス_292" data-name="パス 292" d="M30.987,61.928a4.1,4.1,0,0,1-4.139-3.454.5.5,0,0,1,.49-.583l7.14-.05h0a.5.5,0,0,1,.5.566,3.922,3.922,0,0,1-3.917,3.522h-.073m-3.005-3.041a3.1,3.1,0,0,0,3.06,2.04,2.908,2.908,0,0,0,2.823-2.082Z" transform="translate(-15 -32.323)" fill="#231815"/>
        <path id="パス_293" data-name="パス 293" d="M21.116,54.884q-.182,0-.363-.005a12.813,12.813,0,0,1-9.372-4.1C9.214,48.4,8.238,43.539,9.158,39.718a.75.75,0,1,1,1.458.352c-.8,3.331.039,7.683,1.875,9.7a11.346,11.346,0,0,0,8.3,3.607,11.783,11.783,0,0,0,8.533-3.254c2.315-2.424,3.13-6.189,2.236-10.329a.75.75,0,0,1,1.467-.317c1,4.635.046,8.893-2.618,11.683a13.289,13.289,0,0,1-9.3,3.723" transform="translate(-4.925 -21.731)" fill="#231815"/>
        <path id="パス_294" data-name="パス 294" d="M24.571,43.358a.98.98,0,1,1-.859-1.087.982.982,0,0,1,.859,1.087" transform="translate(-12.639 -23.619)" fill="#231815"/>
        <path id="パス_295" data-name="パス 295" d="M47.574,43.359a.98.98,0,1,1-.859-1.088.981.981,0,0,1,.859,1.088" transform="translate(-25.494 -23.619)" fill="#231815"/>
        <path id="パス_296" data-name="パス 296" d="M33.787,53.632a1.846,1.846,0,0,1-1.244-.395,1.262,1.262,0,0,1-.4-1.093.75.75,0,0,1,1.491-.02,1.935,1.935,0,0,0,.6-.041.75.75,0,0,1,.31,1.468,3.689,3.689,0,0,1-.75.081" transform="translate(-17.957 -28.762)" fill="#231815"/>
        <path id="パス_297" data-name="パス 297" d="M4.134,47.814a.74.74,0,0,1-.107-.008A4.365,4.365,0,0,1,.148,44.77,4.215,4.215,0,0,1,1.38,40.522a2.739,2.739,0,0,1,3.095-.29.751.751,0,1,1-.683,1.337,1.247,1.247,0,0,0-1.462.116,2.693,2.693,0,0,0-.735,2.684A2.817,2.817,0,0,0,4.239,46.32a.75.75,0,0,1-.105,1.493" transform="translate(0 -22.29)" fill="#231815"/>
        <path id="パス_298" data-name="パス 298" d="M62.25,47.567a.75.75,0,0,1-.055-1.5A2.791,2.791,0,0,0,64.827,44.4a2.393,2.393,0,0,0-.48-2.458,2.3,2.3,0,0,0-2.536-.324.751.751,0,0,1-.52-1.408,3.756,3.756,0,0,1,4.118.672,3.882,3.882,0,0,1,.825,4.041,4.26,4.26,0,0,1-3.927,2.646l-.057,0" transform="translate(-33.977 -22.292)" fill="#231815"/>
        <path id="パス_299" data-name="パス 299" d="M13.493,30.567a.751.751,0,0,1-.475-1.331,1.551,1.551,0,0,1,.33-.206.744.744,0,0,1,.585-.016c3.252-.43,7.857-2.368,8.836-5.67a.75.75,0,0,1,1.439.427c-1.3,4.386-7.223,6.5-10.65,6.794-.022,0-.044,0-.065,0" transform="translate(-7.121 -12.745)" fill="#231815"/>
        <path id="パス_300" data-name="パス 300" d="M41.323,32.793A.75.75,0,0,1,41,31.363a9.535,9.535,0,0,0,3.367-2.811.75.75,0,1,1,1.239.847,11.063,11.063,0,0,1-3.97,3.322.748.748,0,0,1-.318.071" transform="translate(-22.673 -15.773)" fill="#231815"/>
        <path id="パス_301" data-name="パス 301" d="M27.017,18.7a.751.751,0,0,1-.184-1.478c2.932-.746,3.481-3.8,3.06-6.192-.281-1.6-1.518-6.766-5.572-6.294a.745.745,0,0,1-.7-.318,6.594,6.594,0,0,0-4.284-2.779A13.364,13.364,0,0,0,9.3,4.319c-.726.606-1.383,1.227-2.017,1.826a18.888,18.888,0,0,1-4.932,3.7A.751.751,0,0,1,1.7,8.5a17.685,17.685,0,0,0,4.55-3.441C6.907,4.44,7.58,3.8,8.342,3.167A14.961,14.961,0,0,1,19.562.158a8.08,8.08,0,0,1,5.03,3.054c3.98-.186,6.105,3.739,6.778,7.56.5,2.834-.149,6.426-3.47,7.687a.75.75,0,0,1-.5.226l-.347.016h-.037" transform="translate(-0.715 0)" fill="#231815"/>
        <path id="パス_302" data-name="パス 302" d="M4.277,25.413a.75.75,0,0,1,0-1.5,10.676,10.676,0,0,0,6.973-2.8.75.75,0,1,1,.985,1.132A12.152,12.152,0,0,1,4.28,25.413Z" transform="translate(-1.971 -11.697)" fill="#231815"/>
      </g>
    </g>
    <g id="グループ_32" data-name="グループ 32" transform="translate(191.009 -547.862)">
      <g id="グループ_31" data-name="グループ 31" transform="translate(0 0)" clip-path="url(#clip-path-2)">
        <path id="パス_303" data-name="パス 303" d="M8.361,29.716c-.066.042-.133.082-.2.121,0,0-.1-2.093-.072-2.316a8.441,8.441,0,0,1,.767-2.43,18.283,18.283,0,0,1,2.025-3.964,12.264,12.264,0,0,1,7.781-4.5,12.024,12.024,0,0,1,11.271,4.7,11.567,11.567,0,0,1,1.985,8.641L28.1,25.928a14.966,14.966,0,0,0-1.814-1.721,10.083,10.083,0,0,0-6.442-1.769,29.985,29.985,0,0,0-6.68,1.26c-.764.207-1.365,2.442-1.8,3.041a11.876,11.876,0,0,1-3,2.977" transform="translate(-4.463 -9.116)" fill="#58c1df"/>
        <path id="パス_304" data-name="パス 304" d="M32.349,7.312c.5-1.318,1.258-2.468,2.95-2.385a3.074,3.074,0,0,1,2.824,2.938c-1.659-.816-4.2-.009-5.987.063.066-.206.137-.413.213-.615" transform="translate(-17.744 -2.718)" fill="#ffe33f"/>
        <path id="パス_305" data-name="パス 305" d="M5.286,63.887a7.105,7.105,0,0,0-.064,5.9c.3.658.823,1.344,1.545,1.339a5.856,5.856,0,0,0,1.241-.358,3.384,3.384,0,0,1,1.952.324,3.86,3.86,0,0,0,1.945.4,1.271,1.271,0,0,0,1.137-1.381,9.99,9.99,0,0,1-5.712-6.439Z" transform="translate(-2.546 -35.156)" fill="#58c1df"/>
        <path id="パス_306" data-name="パス 306" d="M51.127,63.244a13.022,13.022,0,0,1-5.8,6.373,3.32,3.32,0,0,0,2.778.747,1.5,1.5,0,0,0,1.635.852,3.283,3.283,0,0,0,1.713-.966,8.709,8.709,0,0,0,2.529-7.813Z" transform="translate(-25.029 -34.475)" fill="#58c1df"/>
        <path id="パス_307" data-name="パス 307" d="M29.758,68.244a4.166,4.166,0,0,1-4.2-3.508.507.507,0,0,1,.5-.592l7.248-.051a.564.564,0,0,1,.384.172.505.505,0,0,1,.123.4,3.981,3.981,0,0,1-3.976,3.575h-.074m-3.051-3.088a3.15,3.15,0,0,0,3.107,2.072,2.951,2.951,0,0,0,2.865-2.114Z" transform="translate(-14.107 -35.389)" fill="#231815"/>
        <path id="パス_308" data-name="パス 308" d="M20.376,61.459c-.137,0-.273,0-.41-.006a12.742,12.742,0,0,1-9.21-3.974c-2.288-2.516-2.832-7.432-2.037-10.732A.762.762,0,1,1,10.2,47.1c-.787,3.269-.032,7.463,1.684,9.35A11.235,11.235,0,0,0,20.01,59.93a10.81,10.81,0,0,0,8.068-2.953c1.774-1.857,3.312-5.5,2.31-10.139a.762.762,0,0,1,1.489-.322c.958,4.437-.05,8.741-2.7,11.513a12.239,12.239,0,0,1-8.8,3.429" transform="translate(-4.624 -25.353)" fill="#231815"/>
        <path id="パス_309" data-name="パス 309" d="M23.219,51.629a1,1,0,1,1-.872-1.1,1,1,0,0,1,.872,1.1" transform="translate(-11.725 -27.894)" fill="#231815"/>
        <path id="パス_310" data-name="パス 310" d="M46.222,51.63a1,1,0,1,1-.872-1.1,1,1,0,0,1,.872,1.1" transform="translate(-24.426 -27.894)" fill="#231815"/>
        <path id="パス_311" data-name="パス 311" d="M32.515,60.066a1.821,1.821,0,0,1-1.227-.391,1.254,1.254,0,0,1-.4-1.088.762.762,0,0,1,1.51-.049,2.013,2.013,0,0,0,.537-.043.762.762,0,0,1,.316,1.49,3.638,3.638,0,0,1-.734.079m-.871-1.4.758.076h0Z" transform="translate(-17.049 -31.97)" fill="#231815"/>
        <path id="パス_312" data-name="パス 312" d="M4.033,54.606a.751.751,0,0,1-.109-.008,4.257,4.257,0,0,1-3.78-2.962,4.116,4.116,0,0,1,1.2-4.147,2.686,2.686,0,0,1,3.032-.283.762.762,0,1,1-.693,1.357,1.175,1.175,0,0,0-1.375.107,2.569,2.569,0,0,0-.7,2.558A2.693,2.693,0,0,0,4.14,53.09a.762.762,0,0,1-.107,1.516" transform="translate(0 -25.878)" fill="#231815"/>
        <path id="パス_313" data-name="パス 313" d="M59.354,54.368a.762.762,0,0,1-.056-1.522,2.665,2.665,0,0,0,2.515-1.593,2.277,2.277,0,0,0-.457-2.339,2.183,2.183,0,0,0-2.414-.305.762.762,0,0,1-.528-1.43,3.666,3.666,0,0,1,4.02.659,3.792,3.792,0,0,1,.807,3.946,4.154,4.154,0,0,1-3.829,2.582l-.058,0" transform="translate(-31.978 -25.88)" fill="#231815"/>
        <path id="パス_314" data-name="パス 314" d="M31.336,27.95a.778.778,0,0,1-.15-.015.762.762,0,0,1-.6-.9,12.683,12.683,0,0,0-1.9-9.758,12.169,12.169,0,0,0-7.48-5.041A12.359,12.359,0,0,0,11.95,14.4,14.105,14.105,0,0,0,6.906,26.957a.762.762,0,1,1-1.514.172A15.655,15.655,0,0,1,11.015,13.2,13.979,13.979,0,0,1,21.477,10.74,13.728,13.728,0,0,1,29.932,16.4a14.216,14.216,0,0,1,2.15,10.933.763.763,0,0,1-.746.612" transform="translate(-2.923 -5.818)" fill="#231815"/>
        <path id="パス_315" data-name="パス 315" d="M4.888,69.164a.761.761,0,0,1-.644-.355,10.207,10.207,0,0,1-.96-8.7.762.762,0,0,1,1.434.513A8.652,8.652,0,0,0,5.532,68a.762.762,0,0,1-.644,1.168" transform="translate(-1.502 -32.908)" fill="#231815"/>
        <path id="パス_316" data-name="パス 316" d="M58.893,70.232a.762.762,0,0,1-.495-1.341,7.463,7.463,0,0,0,2.219-7.738.762.762,0,1,1,1.452-.459,9.023,9.023,0,0,1-2.683,9.357.758.758,0,0,1-.494.182" transform="translate(-32.097 -33.218)" fill="#231815"/>
        <path id="パス_317" data-name="パス 317" d="M20.239,20.053a.74.74,0,0,1-.1-.007.762.762,0,0,1-.652-.858,11.622,11.622,0,0,1,5.889-8.371.762.762,0,1,1,.738,1.333,10.074,10.074,0,0,0-5.117,7.244.762.762,0,0,1-.754.659" transform="translate(-10.754 -5.92)" fill="#231815"/>
        <path id="パス_318" data-name="パス 318" d="M34.995,20.729a.792.792,0,0,1-.107-.008.761.761,0,0,1-.648-.86l.861-6.126a.762.762,0,1,1,1.508.211l-.861,6.126a.762.762,0,0,1-.753.656" transform="translate(-18.901 -7.223)" fill="#231815"/>
        <path id="パス_319" data-name="パス 319" d="M44.977,21.739c-.027,0-.055,0-.082,0a.762.762,0,0,1-.676-.839,13.426,13.426,0,0,0-2.047-7.216.762.762,0,0,1,1.254-.866,14.846,14.846,0,0,1,2.308,8.246.762.762,0,0,1-.756.68" transform="translate(-23.211 -6.893)" fill="#231815"/>
        <path id="パス_320" data-name="パス 320" d="M37.335,6.234a.762.762,0,0,1-.722-1,2.922,2.922,0,0,0-.672-2.881,2.922,2.922,0,0,0-2.874-.7c-.746.241-1.439,1.879-1.653,3.257a.762.762,0,1,1-1.505-.234C29.969,4.285,30.557.862,32.6.2a4.44,4.44,0,0,1,4.427,1.076,4.439,4.439,0,0,1,1.034,4.436.762.762,0,0,1-.722.52" transform="translate(-16.509 0)" fill="#231815"/>
        <path id="パス_321" data-name="パス 321" d="M6.794,40.128a.762.762,0,0,1-.249-1.482c1.483-.512,3.584-3.621,4.169-5.378a.762.762,0,1,1,1.445.482c-.6,1.8-2.887,5.565-5.116,6.336a.757.757,0,0,1-.249.042" transform="translate(-3.33 -18.081)" fill="#231815"/>
        <path id="パス_322" data-name="パス 322" d="M54.706,39.561a.761.761,0,0,1-.322-.072c-1.942-.906-4.4-5.961-4.721-7.583a.762.762,0,0,1,1.495-.294c.318,1.621,2.644,5.924,3.87,6.5a.762.762,0,0,1-.322,1.452" transform="translate(-27.414 -17.115)" fill="#231815"/>
      </g>
    </g>
  </g>
</svg>
